<svg xmlns="http://www.w3.org/2000/svg" width="575" height="595"><path fill="#F3F1F5" stroke="#F3F1F5" d="M240.5 92h40l3.5 1.5-3.5.5-1-1h-38l-3 1v-1l2-1zm-11 2l1.5.5q-1 2.5-5.5 1.5v-1l4-1zm69 0l6.5 4.5-1.5.5-5.5-3 .5-2zm-75 2v1-1zm-4 1l1.5.5-3.5 1.5v-1l2-1zm-5 2v1-1zm92 0l1.5.5-1.5.5v-1zm-96 1l1.5.5-2.5 1.5 1-2zm100 0l2.5 1.5-1.5.5-1-2zm-103 2l-1 2-3 1 1-2 3-1zm108 0l3.5 2.5-1.5-.5-2-2zm-115 3l1.5.5-4.5 2.5v-1l3-2zm121 0l2.5 1.5-1.5.5-1-2zm4 2v1-1zm-130 1l.5 2-2-.5 1.5-1.5zm132 0q2.3-.7 1.5 1.5l-1.5-1.5zm-135 2l-2 3 2-3zm138 0l4.5 6.5-3-2-1.5-4.5zm-142 3l.5 2-4.5 3 4-5zm147 5q2.3-.7 1.5 1.5l-1.5-1.5zM181 119l2 .5-3.5 4.5-.5-1.5 2-3.5zm157.5 2l1.5 2.5-2-1 .5-1.5zm2 4l2 3-2-3zM176 126l2 .5-2.5 4.5-.5-1.5 1-3.5zm167.5 3q2.3-.7 1.5 1.5l2 2 1 7h-1l-1-7-2.5-3.5zm-93 14l14.5.5-14.5.5-2 1v-1l2-1zm16 1l1.5.5-1.5.5v-1zm-22 1l1.5.5-2.5 1.5 1-2zm27 0l3.5 1.5-1.5.5-2-2zm-32 2l2.5.5-6.5 2.5 1-2 3-1zm37 0l3.5 2.5-1.5-.5-2-2zm5 3l2.5 1.5-1.5.5-1-2zm-48 2l-.5 1.5 1 9-1 1v22l-1.5 2.5-.5-1.5 1-1v-23l1-4-1-5 1.5-1.5zm52 1l3 4-3-4zm-111 1l.5 28.5-1.5 8.5-.5-10.5 1-1 .5-25.5zm115 4l1.5 2.5h-1l-.5-2.5zm3 3l1 2q-2.8.7-1-2zm56 0l1.5 1.5v9l-1.5 2.5-.5-1.5 1-1v-8l-.5-2.5zm-53 4l1 2-1-2zm2 4v1-1zm1 4q3 3 1.5 10.5l-1.5 2.5-.5-2.5q2.3-1.2 1-6l-.5-4.5zm49 2l.5 1.5-4.5 5.5 1.5-2.5 2.5-4.5zm-5 8l-.5 1.5q1 8.5-3 12l.5 1.5-1.5-2.5 2-2 1-9 1.5-1.5zm-45 5v1-1zm-32.5 1l4 1.5q1.3 3.8-2.5 2.5l-1.5-4zm31.5 1l-3 4 3-4zm-65 2l2.5 3.5-2-1-.5-2.5zm57.5 3l2 .5-2 1V195zm-41.5 1l1.5.5-1.5.5v-1zm-12 1l4.5 1.5-2.5.5-2-2zm6 0v1-1zm12 0v1-1zm33 0l-1 2-7 1 1-2q5.5 1.5 7-1zm-31 1q4.8-.7 6.5 1.5l-1.5.5-5-1v-1zm85 2l.5 1.5h-1l.5-1.5zm-1 8l.5 2.5h-1l.5-2.5zm-97 5h30l1 1 12.5.5-16.5.5-1-1h-22l-1 1h-8v-1l5-1zm-10 2l-1 2-2.5 1.5-1 7 .5 1.5q-3-1.5-1.5-7.5l2-3.5 3.5-1zm56 0l2.5 1-.5 2-2-3zm52 1l2.5 3.5-2-1-.5-2.5zm-48 3l2.5 3.5-3-2 .5-1.5zm51 2l1 2-1-2zm2 4l2.5 4.5-2-1-.5-3.5zm-173 1l.5 5.5h-1l.5-5.5zm123 1q2.5 4.5 1.5 12.5l-1.5 5.5v-18zm-66 1l.5 4.5h-1l.5-4.5zm119 4l1.5 1.5v33l-1.5 2.5-.5-2.5 1-1v-31l-.5-2.5zm-121 3l.5 2.5-1.5 2.5-.5-1.5 1.5-3.5zm-3.5 11l2 .5-1 1-.5 10.5-.5-12zm70.5 2v1-1zm-1 2l.5 1.5-2 1 1.5-2.5zm-3.5 4l2 .5-3 4.5-3 1.5q.8 2.3-1.5 1.5l-3 2v-1l8.5-7.5V254zm-65.5 6l.5 4.5h-1l.5-4.5zm54 5l-1 2-4 1v-1l5-2zm-52 1l5.5 3.5-1.5.5-4-4zm34 2l3.5.5q-2.7 2.3-8.5 1.5v-1l5-1zm-24 2l9.5.5-9.5.5v-1zm111 4l.5 1.5-1.5 3.5-.5-3.5 1.5-1.5zm-2 6v1-1zm-1 3l-1 2 1-2zm-172 3l.5 4.5h-1l.5-4.5zm169 0l.5 2-2.5 1 2-3zm-4 3l.5 1.5h-1l.5-1.5zm-2 2l-2 3-.5-2 2.5-1zm-164 2l.5 7.5h-1l.5-7.5zm158.5 2l2 .5-2 1V295zm-1.5 2l.5 2-2-.5 1.5-1.5zm-3 2l-2 3-1.5-.5 3.5-2.5zm-5 3l.5 2-3.5 1 1-2 2-1zm-147 1l3 2 2 3-5-5zm141 2l1.5.5-2.5 1.5 1-2zm-4 2l1.5.5-1.5.5v-1zm-130 1l2.5 1.5-1.5.5-1-2zm127 0l1.5.5-3.5 1.5v-1l2-1zm-123 2v1-1zm117 0v1-1zm-115 1l5.5 1.5-2.5.5-3-1v-1zm76 0l3.5 1.5-4.5.5 1-2zm33 0l4.5.5-6.5 1.5v-1l2-1zm-95 2l6.5 2.5-1.5.5-4-1-1-2zm56 0l1.5.5q-1 2.5-5.5 1.5v-1l4-1zm-7 2l1.5.5-1.5.5v-1zm-39 1l33.5.5-33.5.5v-1zm326 1l3.5.5-5.5 1.5v-1l2-1zm10 0l5.5 4.5-.5 1.5-3-4-2-2zm-17 2l1.5.5-1.5 1.5-8 1v-1l8-2zm-16 3l3.5.5-9.5 2.5v-1l6-2zm-8 3l.5 2-2-.5 1.5-1.5zm-171 2l1.5.5-1.5.5v-1zm16 0v1-1zm-21 1l2.5.5-3.5 1.5 1-2zm23 0l6.5 3.5-1.5.5-5-3v-1zm151 0l.5 1.5q-2.3 1.3-1 6l.5 1.5q-3-1.5-1.5-7.5l1.5-1.5zm48 1l-.5 1.5-.5 1.5-.5-1.5 1.5-1.5zm-226 1l1.5.5-4.5 2.5 1-2 2-1zm123 0q6.4-.4 8.5 3.5l-1.5-.5-6-2-5 1v-1l4-1zm39 1l4.5 1.5-6.5.5v-1l2-1zM319 333l2 .5-2 1V333zm41.5 0q2.3-.7 1.5 1.5l1.5 2.5-3-4zm62 0l-1 2 1-2zm7 0l5.5 4.5-.5 1.5-3-4-2-2zm13 0v1-1zm41 0l.5 2-3 1.5-.5 1.5-.5-1.5 3.5-3.5zm10 0q2.3-.7 1.5 1.5l3 6h-1l-3.5-7.5zm54 0l1.5.5-3.5 1.5v-1l2-1zm-155 1q4.8-.7 6.5 1.5l-1.5.5-5-1-2 1v-1l2-1zm-75 1v1-1zm102 0v1-1zm38 0q2.3-.7 1.5 1.5l-1.5-1.5zm83 0l2.5.5-5.5 1.5v-1l3-1zm-225 1l.5 2-6 4.5-1.5 2.5-.5-1.5 7.5-7.5zm67 0l3.5 1.5-5.5.5v-1l2-1zm6 0l.5 2-2-.5 1.5-1.5zm12 0l4.5 3.5-1.5.5-3.5-2 .5-2zm18 1l-.5 1.5-.5 1.5-.5-1.5 1.5-1.5zm115 0l1.5.5-1.5.5v-1zm-169 1v1-1zm12 0l1.5.5-6.5 4.5-.5-2 5.5-3zm64 0l.5 27.5-1.5 5.5-.5-29.5 1.5-3.5zm19 0l.5 1.5h-1l.5-1.5zm44.5 0q3-1 2 2-3 1-2-2zm25.5 0l1.5.5-1.5.5v-1zm-463 1q7-1.1 10.5 1.5l-13.5.5v-1l3-1zm158 0q6.8-1.3 9.5 1.5l-1.5.5q-1.8-2.7-8-1l-1.5.5 1.5-1.5zm29 0l5.5 1.5-1.5.5-4-1-2 1v-1l2-1zm226 0l.5 7.5h-1l.5-7.5zm-114 1q2.5 1 1.5 5.5h-1l-.5-5.5zm142 0l1 1h6.5l-2.5 13-.5-4.5 2-7-5.5-.5-1-2zm23 0l2.5 5.5-1.5 5.5-.5-9.5-.5-1.5zm-474 1l1.5.5-6.5 2.5v-1l5-2zm26 0l4.5 1.5-3.5.5-1-2zm138 0l.5 2-3 1.5q.8 2.3-1.5 1.5l-2 3-.5-1.5 2-3.5 4.5-3zm14.5 0h2q-1.1 2.7 1.5 2l3.5 4.5-2-1-1.5-2.5-3.5-1v-2zm14.5 0l-1.5 2.5-1.5 2.5-.5-1.5 3.5-3.5zm11 0l.5 1.5h-1l.5-1.5zm28 0l1.5.5-4.5 2.5 1-2 2-1zm8 0l3.5 2.5-1.5-.5-2-2zm164 0l1.5 4.5h-1l-.5-4.5zm-54 1l1.5.5-1.5.5v-1zm-318 1v1-1zm281 0l-1 2 1-2zm128 0l.5 6.5q-2.5 1.5-1 7l-1.5 1.5-.5-1.5 2.5-13.5zm-450 1l2.5.5-3.5 1.5 1-2zm43 0l2.5 1.5-1.5.5-1-2zm97 0l4.5 1.5-7.5.5v-1l3-1zm75 0l1.5 2.5-2-1 .5-1.5zm21 0l.5 2-2-.5 1.5-1.5zm18 0v1-1zm107 0q2.3-.7 1.5 1.5l2.5 3.5q-2.2.8-1.5-1.5l-2.5-3.5zm-71 1l2.5.5-2.5.5v-1zm10 0q2.8 1.3.5 2.5.8 2.3-1.5 1.5l1-4zm-303 1v1-1zm50 0v1-1zm34 0l6.5.5-6.5.5v-1zm49 0l2.5.5-2.5.5v-1zm19 0l2.5 1.5-1.5.5-1-2zm106 0l1.5.5v7l-4.5 5.5 2.5-3.5 1-8-.5-1.5zm31 0l1.5.5-2.5 1.5 1-2zm102 0l1.5 2.5v27l1 5h-1l-.5-1.5-1 2-.5-1.5 1-1v-29l-.5-3.5zm-393 1l-3 4-.5-2 3.5-2zm54 0l4 5 1.5-3 4.5-2-1 2-4.5 3.5q.7 2.6-2 1.5l-1-5q-3.2 1-1.5-2zm15 0l6.5 3.5-1.5.5-5-3v-1zm10 0l2.5.5-3.5 1.5 1-2zm17 0h3.5q-1.1 2.7 1.5 2l1.5 3q3-1 2 2-2.7 1.1-2-1.5l-6.5-4.5v-1zm25 0l11.5.5-6.5 1.5-4-1-2 1 1-2zm116 0l-1.5 2.5q.8 2.3-1.5 1.5l-9.5 9.5v1.5q-2.7 1.1-2-1.5l-1-1v-10h1l1.5 10.5 1.5-3h2q-1.1-2.7 1.5-2l1.5-3 6.5-5zm138 0q2.8 5.3 1.5 14.5h-1l-.5-14.5zm45 0l2.5 6.5h-1l-1.5-6.5zm-132 1l-1 2 1-2zM159 349l2 .5-2 1V349zm41.5 0l.5 1.5h-1l.5-1.5zm144 0l-1 2-2 1-.5-2 3.5-1zm134 0l.5 5.5-2 1 1.5-6.5zm-266 1l.5 1.5-3 2 2.5-3.5zm96 0l1.5 3.5h-1l-.5-3.5zm105 0l2.5 5.5-2-1-.5-4.5zm-171 1l.5 2.5h-1l.5-2.5zm-204 1l.5 1.5-2 1 1.5-2.5zm119 0l.5 6.5-1.5 5.5-.5-7.5 1.5-4.5zm44 0v1-1zm45 0l1.5 16.5-1 1v13l-1.5 2.5-.5-2.5 1-1v-11l-1-2h2l-.5-16.5zm83 0l4.5 1.5-5 .5.5-2zm9 0l1.5.5-4.5 1.5v-1l3-1zm192 1l.5 2.5h-1l.5-2.5zm-328 1l.5 7.5h-1l.5-7.5zm191 0l4.5 5.5-2-1-1.5-2.5q-2.8.7-1-2zm-246 1l2.5 4.5-2-1-.5-3.5zm62 0l.5 1.5-2 1 1.5-2.5zm34 0l1.5 9.5h-1q-2.4-3.3-.5-9.5zm147 0l1.5.5-1.5.5v-1zm75 0l2.5 4.5-2 .5-.5-5zm-83 1l-4 5 4-5zm2 0l4.5.5-4.5.5v-1zm-348 1l.5 4.5h-1l.5-4.5zm274 0l.5 11.5h-1l.5-11.5zm-246 1h8l.5 1.5-1.5-.5h-7v-1zm-5 1l1.5.5-3.5 1.5v-1l2-1zm235 0l2.5.5-6 2.5q1.1 2.7-1.5 2l-5.5 4-1.5 3q-2.2-.7-1.5 1.5l-1.5 2.5-.5-1.5 2.5-3.5q2.3.8 1.5-1.5l3-1.5q-1.1-2.7 1.5-2l7-6zm182 0v1-1zm-408 1l1.5.5-3.5 1.5v-1l2-1zm138 0l.5 2.5-1.5 2.5-.5-1.5 1.5-3.5zm210 0l1.5 4.5-1.5 2.5v-7zm-18 1l.5 4.5h-1l.5-4.5zm77 0l.5 1.5-2 1 1.5-2.5zm-411 1v1-1zm312 0v1-1zm92 0q2.3-.7 1.5 1.5l-1.5-1.5zm26 0l.5 1.5-2.5 4.5.5-1.5q-.7-3.7 1.5-4.5zm-457 1l1.5 4.5-1 1v34l1 4-2-1 .5-42.5zm25 0l-2.5 3.5q.8 2.3-1.5 1.5l4-5zm139 0l.5 1.5-4.5 5.5-.5-2 3-1.5 1.5-3.5zm-103 1v1-1zm32 0q2.3-.7 1.5 1.5l-1.5-1.5zm50 0l4.5.5q-1.3 2.7-2.5.5-3 .5-2-1zm195 0l-2 3-.5-2 2.5-1zm-319 1l.5 16.5-2-1v-13l1.5-2.5zm69 0l4.5 1.5-5.5 1.5h-2l-1.5-.5 4.5-2.5zm49 0l4.5.5-4.5.5v-1zm50 0l1.5.5-1.5.5v-1zm128 0l1.5.5-8.5 4.5 1-2 6-3zm121 0l-1 2 1-2zm-377 1l1.5.5-1.5.5v-1zm434 0v1-1zm-326 1l-2 3-2 1-.5-2 4.5-2zm-110 1l.5 2-2-.5 1.5-1.5zm276.5 0l2 .5-2.5 3.5-.5-1.5 1-2.5zm26.5 0l-.5 1.5-.5 1.5-.5-1.5 1.5-1.5zm134 0q2.3-.7 1.5 1.5l-1.5-1.5zm-382 1l.5 1.5-2.5 4.5.5-1.5 1.5-4.5zm6 0l.5 2-2-.5 1.5-1.5zm357 0l2.5 5.5-2-1-.5-4.5zm-421 1l-1 2 1-2zm102 0l2.5 3.5-2-1-.5-2.5zm55 0l.5 2.5h-1l.5-2.5zm92 0l2.5.5-2.5 1.5h-11v-1h10l1-1zm11 0l.5 2.5h-1l.5-2.5zm140 0l.5 1.5-7.5 9.5-.5-1.5 3-1.5 4.5-8zm-76 1l.5 1.5-2.5 3.5.5-1.5 1.5-3.5zm3 0l.5 5.5-2 1 1.5-6.5zm-220 1l.5 1.5-2 1 1.5-2.5zm196 0l-3 4 3-4zm-303 1l4.5 7.5h-1l-4-6 .5-1.5zm62 0l.5 4.5h-1l.5-4.5zm216 0l.5 1.5q-2.5 1.5-1 7l1 2h-1l-1-8 1.5-2.5zm69 0l.5 1.5h-1l.5-1.5zm-109 1l2.5 9.5-2 .5-.5-10zm21 0l.5 9.5h-1l.5-9.5zm-101 1l1.5 5.5h-1l-.5-5.5zm-191 1l2.5 4.5-2 .5-.5-5zm86.5 0q3-1 2 2l-4.5 2v-1l2.5-1.5V376zm312.5 0l4 5q2.3-.7 1.5 1.5l-5.5-4.5-1.5 1.5-1.5 3.5.5-1.5q-.7-4.7 2.5-5.5zm58 0l3.5 4.5-4-3 .5-1.5zm-234 1q2.3-.7 1.5 1.5l4.5 5.5q-2.2.8-1.5-1.5l-4.5-5.5zm30 0q2.6 2.4 1.5 8.5h-1l-.5-8.5zm78 0l-1 2 1-2zm23 0l.5 1.5-2 1 1.5-2.5zm120 0l-1.5 2.5-.5 1.5-.5-1.5 2.5-2.5zm-378 2q5.8 3.7 4.5 14.5l-2-1 1-4-1-5q-4.2-1.2-2.5-4.5zm43 1l2.5 3.5-3-2 .5-1.5zm189 0l-1 2-3 2-.5-2 4.5-2zm-247 1l1.5.5-2.5 1.5 1-2zm269.5 0l2 .5-3 4.5-2.5 1 3.5-4.5V381zm73.5 0l-2 3-1.5-.5 3.5-2.5zm37.5 0l6.5 1 2-1-1 2h-7l-.5-2zm-461.5 1l1 2q-2.8.7-1-2zm3 0l1.5.5-1.5.5v-1zm35 0l.5 8.5h-1l.5-8.5zm99 0l.5 1.5-2 1 1.5-2.5zm243 0v1-1zm-374 1l1.5.5-1.5.5v-1zm71 0l1.5.5-1.5.5v-1zm329 0l1.5.5-1.5.5v-1zm-388 1l2.5 1.5-3.5 4.5 2.5-3.5-1.5-2.5zm56 0l6.5 4.5-1.5.5-5-5zm44 0l.5 4.5h-1l.5-4.5z"/><path fill="#F3F1F5" stroke="#F3F1F5" d="M178.5 384l1 2q-2.8.7-1-2zm41 0l.5 2.5-2-1 1.5-1.5zm154 0l2.5.5-2.5.5v-1zm6 0l1.5.5-1.5.5v-1zm38 0l3.5 4.5-4-3 .5-1.5zm17 0l.5 1.5-4 3 3.5-4.5zm5 0q2.3-.7 1.5 1.5l-1.5-1.5zm12.5 0l2 .5-2 1V384zm17.5 0l7.5.5q-1 2.5-5.5 1.5l-2-2zm-409 1l3.5 4.5-1.5.5-2-5zm228 0l2 3-2-3zm63 0l.5 1.5h-1l.5-1.5zm-158 1l-1 2-2 1 1-2 2-1zm249 0v1-1zm8 0v1-1zM181 387q3-1 2 2-3 1-2-2zm18.5 0l.5 4.5h-1l.5-4.5zm45 0l.5 1.5-3 2 2.5-3.5zm69 0l.5 1.5h-1l.5-1.5zm131 0l4.5.5-4.5.5v-1zm-226 1l.5 4.5h-1l.5-4.5zm186 0v1-1zm-305 1l2.5 13.5-2-1-.5-12.5zm170 0l3.5 4.5-4-3 .5-1.5zm22 0l2.5 3.5-2-1-.5-2.5zm131 0l5 1 2-1v1l-6 1-1-2zm-282 1l5 5q9.4-1.4 12.5 3.5l-2 1-1.5-2.5-9-1-5.5-4 .5-2zm36 0l.5 4q4.5-2 13.5-1l2.5 1.5-18 .5 1.5-5zm176 0l3.5 4.5-2-1q.7-2.6-2-1.5l.5-2zm49 0l1.5.5-3 1.5q1.1 2.7-1.5 2l-3.5 2.5q-.7-2.2 1.5-1.5l5-5zm-87 1l1.5 2.5-2-1 .5-1.5zm-219 1l.5 1.5-4.5 6.5-.5-1.5 4.5-6.5zm145 0l-2 3 2-3zm89.5 0l2 .5-1 2.5h-2q1.1 2.7-1.5 2l2.5-3.5V392zm-111 2l2 .5-2.5 4.5-.5-1.5 1-3.5zm32.5 0l3 4q2.3-.7 1.5 1.5l-5-4 .5-1.5zm17 0l.5 3q-2.7 1.1-2-1.5l1.5-1.5zm-74 1l4.5 3.5-.5 1.5-3-4-1-1zm6 0l1.5 2.5-2-1 .5-1.5zm34.5 0q3-1 2 2-3 1-2-2zm38.5 0q2.3-.7 1.5 1.5l3 5h-1l-3.5-6.5zm21 0l1.5 2.5-1.5 2.5v-5zm23 0l1 2q-2.8.7-1-2zm40 0l5.5 4.5-1.5-.5-4.5-2 .5-2zm-136 1v1-1zm2 1q1.8 2.7 8 1l2-1v1l-9 1-1-2zm98 0l2.5.5-2.5.5v-1zm71 0l1.5.5-3.5 2.5-.5-2 2.5-1zm-127 1l1.5.5-2.5 1.5 1-2zm-63 1l1.5 2.5h-1l-.5-2.5zm-82.5 1l2 .5-1.5 2.5-.5-3zm3.5 0l1 2-1-2zm94 0l.5 2-2.5 1 2-3zm42 0l2.5.5-2.5.5v-1zm106 0l2.5 1.5-3 .5.5-2zm22 0l1.5.5-2.5 1.5 1-2zm-298 1l-1 2 1-2zm204 1l-3 4-1.5-.5 2-.5q-1.1-2.7 1.5-2l1-1zm77 0l2.5.5-2.5.5v-1zm12 0l1.5.5-1.5.5v-1zm-296 1l.5 2-3.5 1v-1l3-2zm41 0l4.5 3.5-.5 1.5-.5-2-3.5-3zm80 0q6.9-2 5.5 2-5.7 1.3-5.5-2zm72 0q2.3 3.7 8.5 3.5l-4.5.5-4.5-2 .5-2zM57 406l4 1.5-3 .5-.5 3-.5-5zm23.5 0l1.5.5-3.5 1.5v-1l2-1zm22 0l2.5 5 3 1.5-1.5.5-4.5-5.5.5-1.5zm96 0l.5 1.5-3 2 2.5-3.5zm-129 2l1.5.5-1.5.5v-1zm50 0l.5 1.5-2 1 1.5-2.5zm14 0l2 3-2-3zm-94 2l2.5 4.5-2-1-.5-3.5zm117 0l3.5 2.5-1.5.5-2-3zm-41 1l1.5.5-3.5 1.5v-1l2-1zm22 0l1 2q-2.8.7-1-2zm17 0l.5 2-3.5 1v-1l3-2zm38 0l1.5.5-1.5 1.5h-15v-1h14l1-1zm-136 1l.5 1.5q-2 6.5-12.5 4.5l-1-2q1.8 2.7 8 1l4.5-3.5.5-1.5zm84 1v1-1zm21 0l1.5.5-1.5.5v-1zm6 0l4.5.5-4.5.5v-1zm-25 1l7.5.5-5.5 1.5-2-2z"/><path fill="#FFFEFF" stroke="#FFFEFF" d="M238.5 92l1.5.5-2.5 1.5 1-2zm43 0q5.9-1.7 4.5 2l-4.5-1v-1zm-53 2v1-1zm-5 1l1.5.5-2.5 1.5 1-2zm77 0l1.5.5-1.5.5v-1zm-83 2l1.5.5-5.5 2.5 1-2 3-1zm87 0l2.5 1.5-1.5.5-1-2zm4 2v1-1zm-99 1l-1 2-2 1 1-2 2-1zm102 0l5.5 2.5-1.5-.5q-4.8 0-4-2zm-108 3v1-1zm115 0q2.3-.7 1.5 1.5l-1.5-1.5zm-121 3l1.5.5-1.5.5v-1zm127 0l1.5.5-1.5.5v-1zm-130 2l-1 2-1.5-.5 2.5-1.5zm135 1l1.5.5-1.5.5v-1zM189 111l2 .5-2 1V111zm143.5 1l1.5 2.5h-1l-.5-2.5zm-145 1l-1 2 1-2zm-3 3l-2 3 2-3zm151 0l1 2q-2.8.7-1-2zm-155 4l-1.5 2.5-.5 1.5-.5-1.5 2.5-2.5zm157 0l1.5.5-1.5.5v-1zm2 2v1-1zm1 2q2.3-.7 1.5 1.5l-1.5-1.5zm-164 1l1.5.5-1.5.5v-1zm167 2l1 2q-2.8.7-1-2zm-168 1l-.5 1.5-.5 24.5-.5-24.5 1.5-1.5zm170 2l1 2-1-2zm2 6v1-1zm-82 8v1-1zm-19 1l3.5.5-3.5.5v-1zm21 0l5.5 1.5-1.5.5-4-1v-1zm8 2l1 2-1-2zm-36 1l2.5.5-2.5.5v-1zm39 1v1-1zm-44.5 1l2 .5-2 1V150zm46.5 0l5.5 4.5-2.5-1.5-3-3zm-47 3l.5 1.5h-1l.5-1.5zm54 3l2.5 3.5-2-1-.5-2.5zm61 4q2.3-.7 1.5 1.5l-1.5-1.5zm-115 3v1-1zm60 0l1 2-1-2zm2 3l2.5 4.5-2-1-.5-3.5zm54 6l.5 1.5h-1l.5-1.5zm-51 5v1-1zm-125 1l.5 1.5h-1l.5-1.5zm173 0l.5 1.5h-1l.5-1.5zm-48 3l.5 1.5h-1l.5-1.5zm46 0l-1 2 1-2zm-111 1l.5 2.5h-1l.5-2.5zm109 2v1-1zm-110 2l.5 1.5h-1l.5-1.5zm65 1l-.5 1.5-1.5 2.5.5-1.5 1.5-2.5zm-29 2v1-1zm73 2l.5 2.5-2 1 1.5-3.5zm-109 1v1-1zm33 0v1-1zm28 0l-1 2 1-2zm-59 4l3.5 1.5-1.5-.5q-3 .5-2-1zm7 0l5.5.5-6.5 1.5 1-2zm8 0q4.5-1 5.5 1.5l-1.5-.5q-5 1-4-1zm37 0l2.5.5-3.5 1.5 1-2zm53 0v1-1zm-79 2l2.5 1.5-1.5-.5-1-1zm18 0l-1 2 1-2zm62 0l1.5 3.5-2 1 1-2-.5-2.5zm-94 16l22.5.5-22.5.5v-1zm-13 1l.5 2-2-.5 1.5-1.5zm54 0l2 3-2-3zm53 0l1 2-1-2zm-110 2l-1 2 1-2zm113 2l1.5 2.5-2-1 .5-1.5zm-51 2l2 3-2-3zm53 3q2.3-.7 1.5 1.5l-1.5-1.5zm-173 1l-.5 1.5q-1.2 4.8 1 6l-2-1q-1.2-5.2 1.5-6.5zm56 0q3.3.8 2.5 5.5h-1l-1.5-5.5zm119 2l.5 1.5h-1l.5-1.5zm2 5v1-1zm-120 1l.5 1.5-2 1 1.5-2.5zm-2 5l.5 1.5-2 1 1.5-2.5zm-2 9v1-1zm69 0l-.5 1.5-.5 1.5-.5-1.5 1.5-1.5zm-2 4v1-1zm-2 2l1.5.5-1.5.5v-1zm-1 2l-7 8 7-8zm-65 3l.5 1.5h-1l.5-1.5zm56 5l.5 1.5h-1l.5-1.5zm-55 1v1-1zm52 1v1-1zm-50 1l1.5.5-1.5.5v-1zm46 0l1.5.5-1.5.5v-1zm76 1l.5 1.5h-1l.5-1.5zm-90 1v1-1zm-27 1l22.5.5-22.5.5v-1zm115 7v1-1zm-1 3l.5 1.5-1.5 2.5-.5-1.5 1.5-2.5zm-174 5l.5 1.5-1.5 7.5-.5-6.5 1.5-2.5zm172 0l-2 3 2-3zm-6.5 5l2 .5-2 1V289zm-1.5 2l.5 2-2.5 1 2-3zm-4 3l.5 1.5h-1l.5-1.5zm-3 3l1.5.5-1.5.5v-1zm-3 2l-2 3 2-3zm-155 2l2.5 3.5-3-2 .5-1.5zm147 3l-1 2-2 1 1-2 2-1zm-143 2v1-1zm3 2l2.5 1.5-1.5-.5-1-1zm131 0l1.5.5-1.5.5v-1zm-2 1v1-1zm-124 1l2.5 1.5-1.5.5-1-2zm119 0l1.5.5-3.5 1.5v-1l2-1zm-6 2v1-1zm-96 2v1-1zm57 0v1-1zm-53 1l5.5 1.5-4.5.5-1-2zm47 0l1.5.5q-2.4 2.6-8.5 1.5v-1q5.5 1.5 7-1zm291 1l2.5.5-2.5.5v-1zm-7 1v1-1zm13 0l3 4-3-4zm-18 1l3.5.5-3.5.5v-1zm-2 1v1-1zm-7 1l1.5.5-2.5 1.5 1-2zm-9 2v1-1zm-5 1l1.5.5-1.5.5v-1zm-3 2v1-1zm-169 1h15l2.5 1.5-1.5.5-1-1h-15v-1zm-2 1v1-1zm170 0l-1 2 1-2zm-175 1l-1 2-2.5-.5 3.5-1.5zm26 0l3.5 2.5-2.5-1.5-1-1zm95 1v1-1zm-2 1v1-1zm5 0l1.5.5-1.5.5v-1zm99 0v1-1zm-229 1v1-1zm37 0l1 2q-2.8.7-1-2zm96 0v1-1zm30 0l1.5.5-1.5.5v-1zm5 0l1.5.5-1.5.5v-1zm-48 1l1.5.5-2 .5-2.5 8-.5-2.5 3.5-6.5zm107 0l.5 1.5h-1l.5-1.5zm-129 1l1.5.5-3 1.5-1.5 3 .5-1.5 2.5-3.5zm10 0l4.5 3.5-3.5-2.5-1-1zm27 0l1 2q-2.8.7-1-2zm25 0l-2 3 2-3zm-165 1l1.5.5-2.5 1.5 1-2zm45 0l1 2-1-2zm28 0l1.5.5-2.5 1.5 1-2zm7 0l2.5 1.5-1.5-.5-1-1zm98 0l1 2-1-2zm52 0l-1 2-3.5-.5 4.5-1.5zm-233 2l-3 4 3-4zm67 0v1-1zm3 0l2 1 1.5-.5q-1.2 2.8-2.5.5l-1-1zm17 0l2 3-2-3zm101 0l1 2-1-2zm39 0v1-1zm-177 1l1.5 2.5h-1l-.5-2.5zm12 0l3.5.5-4.5 1.5 1-2zm83 0l2.5 5.5h-1l-1.5-5.5zm38 0l1.5 1.5v10h-1v-10l-.5-1.5zm38 0v1-1zm-56 1v1-1zm52 0l2.5.5-3 1 .5 1.5q-3-1.5 0-3zm-468 1l2.5.5-3.5 1.5 1-2zm11 0l4.5 1.5-1.5.5-3-1v-1zm147.5 0l2 .5-2 1V339zm10.5 0l1.5.5-1.5.5v-1zm19 0l1.5.5-1.5.5v-1zm6 0l2.5 1.5-1.5-.5-1-1zm116 0l-1 2 1-2zm105 1l.5 8.5h-1l.5-8.5zm28 0l1 2q-2.8.7-1-2zm-451 1v1-1zm164 0l-2 3 2-3zm29 0l-2 3 2-3zm39 0v1-1zm11 0l2 3-2-3zm11 0v1-1zm97 0l1.5.5-1.5.5v-1zm-355 1l1.5.5-2.5 1.5 1-2zm36 0v1-1zm150 0l1.5.5-1.5.5v-1zm24 0l2 3-2-3zm22.5 0l2 .5-2 1V342zm85.5 0l1.5.5-1.5.5v-1zm144 0v1-1zm-424 1v1-1zm319 0v1-1zm124 0l.5 1.5h-1l.5-1.5zm-486 1l-1 2-2 1 1-2 2-1zm46 0l3.5 2.5-1.5-.5-2-2zm93 0l1.5.5-1.5.5v-1zm4 0l7 1 1.5 1.5-1.5-.5-7-1v-1zm51 0l1 2-1-2zm42 0l-2 3 2-3zm25 0l.5 6.5h-1l.5-6.5zm128 0l1.5 3.5h-1l-.5-3.5zm-306 1l4.5.5-4.5.5v-1zm49 0l5.5.5-5.5.5v-1zm124 0v1-1zm44 0q3.5 2-1 4l-2 1 1-2 2.5-1.5-.5-1.5zm21 0v1-1zm43 0l2 3-2-3zm-284 1l1.5.5-1.5.5v-1zm9 0l1.5.5-1.5.5v-1zm41 0v1-1zm38 0l-.5 1.5-2.5 3.5 1.5-2.5 1.5-2.5zm121 0l2.5.5-3.5 1.5 1-2zm127 0l1.5 2.5h-1l-.5-2.5zm70 0l.5 1.5h-1l.5-1.5zM40 347l2 .5-2 1V347zm57.5 0l3 4 1.5-.5q-1.5 3-3 0l-1.5-3.5zm7 0l-1 2-1.5-.5 2.5-1.5zm10 0v1-1zm6 0l-1 2-2 1 1-2 2-1zm42 0l-1 2 1-2zm37 0l1 2q-2.8.7-1-2zm79 0v1-1zm-136 1l1.5.5-1.5.5v-1zm189 0l-1 2 1-2zm181 0v1-1zm-247 1l.5 2.5h-1l.5-2.5zm11 0l-2 3 2-3zm137 0l1.5 2.5h-1l-.5-2.5zm-375 1l.5 1.5-2 1 1.5-2.5zm107 0l.5 1.5h-1l.5-1.5zm13 0l.5 2-2-.5 1.5-1.5zm84 0q2.3.8 1.5 4.5h-1l-.5-4.5zm222 0l.5 1.5h-1l.5-1.5zm33 0v1-1zm-296 1l1.5 2.5h-1l-.5-2.5zm139 0v1-1zm191 0l.5 4.5-2 1 1.5-5.5zm-321 1v1-1zm98 0v1-1zm22 0l1.5.5-1.5.5v-1zm7 0v1-1zm80 0l.5 1.5h-1l.5-1.5zm60 0l.5 1.5h-1l.5-1.5zm-205 1l-1 2 1-2zm62 0v1-1zm81 0v1-1zm-268 1l1 2-1-2zm62 0l-1 2 1-2zm94 0l.5 1.5h-1l.5-1.5zm5.5 0q3-1.2 2 2.5l-1 1v11l.5 1.5-1.5-.5V354zm83.5 0l.5 1.5h-1l.5-1.5zm-236 1v1-1zm47 0l.5 3.5h-1l.5-3.5zm263 0l.5 1.5h-1l.5-1.5zm-197 1v1-1zm120 0l-1 2-4.5-.5 5.5-1.5zm5 0l1 2-1-2zm-359 1l.5 4.5h-1l.5-4.5zm114 0v1-1zm152 0l-1 2 1-2zm81 0l-1 2 1-2zm114 0l.5 2-2-.5 1.5-1.5zm-289 1l.5 2-2-.5 1.5-1.5zm60 0l-1 2 1-2zm200 0v1-1zm9 0l-.5 1.5-.5 1.5-.5-1.5 1.5-1.5zm-415 1l-1 2 1-2zm10 0v1-1zm79 0l.5 11.5-2 1 1-1 .5-11.5zm5 0l.5 9.5-2 1 1-1 .5-9.5zm241 0l1 2-1-2zm20 0q4.2 2.8 2.5 11.5h-1q1.1-3.3-1.5-2.5l.5-1.5 1-2-1.5-5.5zm-349 1v1-1zm177 0l.5 1.5h-1l.5-1.5zm50 0l2.5.5-2.5.5v-1zm85 0l-1.5 2.5-1.5 2.5-.5-1.5 3.5-3.5zm89 0l1 2q-2.8.7-1-2zm-411 1v1-1zm7 0l1.5.5-2.5 1.5 1-2zm138 1l.5 2.5h-1l.5-2.5zm3 0v1-1zm86 0v1-1zm183 0v1-1zm-413 1l-3 4 3-4zm376 0l.5 3.5h-1l.5-3.5zm33 0l.5 2 2 .5-1.5.5-1-3zm-224 1v1-1zm43 0l-2 3 2-3zm205 0v1-1zm-396 1l.5 27.5h-1l.5-27.5zm29 0l3.5.5-3.5.5v-1zm403 0l2 3q-2.2.8-1.5-1.5l-.5-1.5zM203 366l2 .5-2 1V366zm171.5 0l-1 2 1-2zm-278 1l-1 2 1-2zm27 0v1-1zm77 0v1-1zm45 0q3.3.8 2.5 5.5h-1q.4-4.7-1.5-5.5zm152 0l-1.5 2.5-2.5 3.5 1.5-2.5 2.5-3.5zm96 0l-1 2 1-2zm-436 1l.5 9.5h-1l.5-9.5zm226.5 0l2 .5-2 1V368zm65.5 0l2.5 1.5-1.5-.5-1-1zm-151 1q3.5 2-1 4l1-4zm149 0v1-1zm25 0v1-1zm-280 1l-.5 1.5q.8 2.3-1.5 1.5l2-3zm102 0q2.3-.7 1.5 1.5l-1.5-1.5zm-41 1l.5 1.5-1 5 1 2h-1l-1-6 1.5-2.5zm127.5 0l2 .5-2 1V371zm60.5 0l1.5.5-1.5.5v-1zm9 0l.5 2.5h-1l.5-2.5zm21 0l-1 2 1-2zm141 0l.5 1.5h-1l.5-1.5zm-74 1l-.5 1.5-.5 2.5-.5-2.5 1.5-1.5zm53 0l-.5 1.5-.5 1.5-.5-1.5 1.5-1.5zm-162 1l1.5 2.5h-1l-.5-2.5zm86 0v1-1zm-322 1l1.5 2.5-2-1 .5-1.5zm55 0l-1 2 1-2zm132 0l1.5 2.5-2-1 .5-1.5zm111 0l-6 7-1.5-.5 7.5-6.5zm26 0l.5 1.5h-1l.5-1.5zm96 0l1 2q-2.8.7-1-2zm-144 1l.5 1.5h-1l.5-1.5zm45 0l-1 2 1-2zm74 2v1-1zm-343 1l-2 3-3 2 2-3 3-2zm387 0l.5 1.5-2 1 1.5-2.5zm-436 1l.5 2.5h-1l.5-2.5zm153 0l1.5 2.5v13h-1q.8-10.9-.5-15.5zm35 0l3 4-3-4zm128 0l-1 2 1-2zm24 0l2.5 4.5-2-1-.5-3.5zm20 0v1-1zm2 0l3 4-3-4zm28 0l-1 2 1-2zm30 0l3.5 2.5-1.5.5-2-3zm-459 2v1-1zm3 0l-1 2 1-2zm94 0l2 3-2-3zm157 0l.5 1.5h-1l.5-1.5zm172 0l.5 2-2-.5 1.5-1.5zm46 0l.5 2-2-.5 1.5-1.5zm-332 1q3 .5 2.5 4.5l-1 5 1 2h-1l-1-6 1-3-1.5-2.5zm134 0v1-1zm79 0l-2 3 2-3zm45 0l-1 2 1-2zm-318 1l-1.5 2.5 1.5 2.5-4.5-3.5 4.5-1.5zm109 0l.5 1.5-2 1 1.5-2.5zm124 0l4.5.5-4.5.5v-1zm9 0l2.5.5-3.5 1.5 1-2zm84 0v1-1zm-403 1q2.3-.7 1.5 1.5l-1.5-1.5zm6 0h9l2.5 2.5-4 3 2.5-3.5q-3.2-2.3-10-1v-1zm111 0v1-1zm18 0l-1 2 1-2zm93 0l2 3-2-3zm44 0l.5 7.5h-1l.5-7.5zm18 0l1.5 4.5h-1l-.5-4.5zm26 0v1-1zm89 0l5.5 1.5-1.5.5-4-1v-1zm12 0l3.5.5-4.5 1.5 1-2zm-38 1v1-1zm14 0v1-1zm-274 1l1 2-1-2zm39 0l.5 1.5h-1l.5-1.5zm94 0l1.5 3.5-2-1 .5-2.5zm94 0l-1 2 1-2zm35 0l2.5 1.5-1.5.5-1-2zm10 0l-1 2-1.5-.5 2.5-1.5zm-33 1l1 2-1-2zm15 0l-1 2 1-2zm-370 1l2.5 1.5-1.5.5-1-2zm94 0l.5 1.5h-1l.5-1.5zm34 0l1.5.5-1.5.5v-1zm100 0l1 2-1-2zm112 1l.5 1.5h-1l.5-1.5zm-262 1v1-1zm102 0l-1.5 2.5q.8 2.3-1.5 1.5l3-4zm179 0v1-1zm6 0l1.5.5-1.5.5v-1zm-332 1l.5 2.5h-1l.5-2.5zm173 0l2 3-2-3zm24 0l2.5 5.5h-1l-1.5-5.5zm-150 1l2 2 7.5.5-7.5.5-2-3zm209 0q2.3-.7 1.5 1.5l-1.5-1.5zm48 0l1.5.5-1.5.5v-1zm-243 1l1 2q-2.8.7-1-2zm20 0l2.5.5-2.5.5v-1zm14 0l4.5 1.5-2.5.5-2-2zm123 0l2 3-2-3zm17 0v1-1zm67 1l-2 3 2-3zm-178 1l.5 1.5h-1l.5-1.5zm17 0l1.5.5-1.5.5v-1zm92 0v1-1zm26 0q2.3-.7 1.5 1.5l-1.5-1.5zm-261 1l-1 2 1-2zm61 0l1 2-1-2zm42 0v1-1zm54 0l3 4-2.5-1-.5-3zm22 0l2 3-2-3zm-115 1v1-1zm42 0l2.5 3.5-3-1-.5 8.5-.5-8.5 1.5-2.5zm22 0l1 2q-2.8.7-1-2zm45 0v1-1zm53 0l3 1 2-1-1 2q-4.6.8-4-2zm38 0l1 2-1-2zm-139 1l-.5 1.5-.5 1.5-.5-1.5 1.5-1.5zm13 0l1.5.5-1.5.5v-1zm63 0l.5 1.5-3.5 5.5 1.5-2.5 1.5-4.5zm98 0v1-1zm-128 1l-1 2-5 1-3.5-1.5 2.5-.5 3 1 4-2zm96 0l3.5 1.5-2.5.5-1-2zm30 0v1-1zM90 400l2 .5-3 2 1-2.5zm32.5 0l1 2-1.5-.5-1.5 3.5-.5-1.5 2.5-3.5zm154 0l2.5 4.5h-1l-1.5-4.5zm113 0l-1 2-1.5-.5 2.5-1.5zm-289 2l1.5 2.5-2-1 .5-1.5zm25 0l2 3-2-3zm78 0l4.5 2.5-1.5-.5q-3.7-.2-3-2zm13 0l-1 2-2.5-.5 3.5-1.5zm153 0v1-1zm15 0l1.5.5-2.5 1.5h-12v-1h12l1-1zm-297 1v1-1zm193 2l2.5 1.5-1.5.5-1-2zm-243 1q2.3.8 1.5 4.5h-1l-.5-4.5zm45 0l1.5.5-3.5 1.5v-1l2-1zm47 0q2.3-.7 1.5 1.5l-1.5-1.5zm159 0l2.5.5-2.5.5v-1zm-230 2l.5 2.5h-1l.5-2.5zm9 0l3 1 2-1-1 2q-4.8.1-4-2zm35 0l1.5 2.5h-1l-.5-2.5zm30 0l4.5 3-.5 2-4.5-3 .5-2zm65 1l-2 3-2 1 1-2 3-2zm-78 1v1-1zm-2 1l-1 2 1-2zm37.5 0l3 1.5h-3V411zm-115.5 1v1-1zm66 0v1-1zm34 1l2.5 1.5-1.5.5-1-2zm20 0l12.5 1.5-10.5.5-2-2zm-119 1l3 4-3-4zm16 0l-1 2 1-2zm94 0l1.5.5-1.5.5v-1zm-7 1v1-1zm5 0v1-1zm-95 2v1-1z"/><path fill="#FFF" stroke="#FFF" d="M0 4h575v570H0V4zm239 88l-2 2h-8l-5 1-2 2-7 1-9 5q-4-1-3 2l-3 1q-4-1-3 2l-3 1-6 4-2 3-8 7q1 3-2 2 1 3-2 5l-1 95-2 2q-1 5 2 7v50l-2 3v16l3 2q2-1 1 2h3v2l12 4h10v2q4-1 6 2h45l3-2q5 2 4-2h39l14-4 9-5q2 1 1-2h4l5-4q2 1 1-2h2v-2l3-1q2 1 1-2l3-1q-1-3 2-2 5-4 6-11v-7l2-1v-36l-2-1-1-5q1-4-2-3v-3l-3-2q1-3-2-4v-11l2-2-2-4 2-4v-8l3-4q-1-3 2-2l1-3q-1-4 2-3v-13l-2-1v-23l-1-5-3-5q-3 1-2-3h-2l-1-2q1-3-2-2v-2l-3-2v-2l-3-5-2-1q-4 1-3-2l-3-1q-4 1-3-2l-10-3-5-3q-4 1-3-2l-3-1h-12l-1-2h-47zm304 224l-31 7h-4q0 3-4 2l-2 4q-2 7 2 10-1 2 2 1v2h7l-1 7v24l1 1q-1 3 2 2l1 4 5 3h9v-2l3-1v-12l-3-3v-7l2-2q-2-7 1-8 1-6-2-8l6-3 10-1 3-2q4-3 2-13l-3-4-6-1zm-207 10l-8 3q-4-1-3 2h-3v2q-7 1-11 7 1 2-2 1l-2 4q-1 6 2 9v16h2v13l3 11 8 5 7-2 4-5q1-8-2-10v-7l-1-3h13v-2l6-1q3 1 2-1h1l-2 4v15l4 7q2-1 1 2l8 5q6 0 9 3h12l9-5q2 1 1-2 5 1 7-4 2 1 1-2h2l7-8 5-9q-2-7 2-6l-1 7v11l3 3q3-1 2 2h8v-2h3l2-3q-2-6 2-5l2 5 4 2h8l3-2 4-8v2q4 5 12 6 6 2 8-1h3q-1-3 3-2v-2l3-1q-1-3 2-2v-3h2l1-5 3-5q-2-7 2-6-2-7 2-10v-10l-4-6q-4 1-3-2h-6l-1 2h-2l-5 8-1 17-3 5q1 4-3 2l-4-7q1-4-2-3v-4l-3-5-1-7-3-6q-3 1-2-2l-6-2-7 3-4 7v33l-2 1q-1-5 1-6-3-9-1-21-4-2-2-9l-3-4h-11l-4 5v16l1 1v5l-2-1-1-8-7-8q1-3-3-2v-1l-6-6q-9-2-11 2h-2l-9 1-8 5-1 3-4-9q-5-7-13-10h-15zM64 339l-2 2-10 1-2 2h-3l-4 3h-3l-3 6q2 5-2 4v5h2v46q2 6 7 10h10v-2l3-1v-4q3 1 2-3 7-2 11 2l4-2h8l8-5 5-6q-1-4 2-3v-14l-2-1-1-3q1-3-2-2v-2l6-5v26q4 2 2 11l3 6q-1 2 2 1v2h12l3-2v-5l3-5 6 4 2 3q2-1 1 2l12 6h5l8-4 5 3h10v-2h22l4-3q-1-3 2-2v-8l-2-2q1-3-2-2v-2l-3-1h-16l1-8 4 4h11l3-4v-15h3q-1-3 2-2v-3h2l1-6-3-10-4-4-4-1-14 1-3 2h-13l-3 2-3 3-2 8v9l-3 5v4l5 7v10h2v2q-2 3-3-1-4 1-3-2h-7l-2-2q-3 1-2-2h-3l-3-4 8-5 7-10v-11l-5-8q1-3-2-2v-2l-10-3-13 2-3 2q-4 1-3-2h-10l-3 1-1 3-1-1-5-5-10-4q-6 1-8-2H64zm158 0v2q-5-1-6 4 1 2-1 1l-10 17v3q-3-1-2 2l-6 5v10l2 2-1 3 2 11 3 4 5 2 8-1q4-2 4-7 3-1 2 2h12v-2l4-1q2 1 1-2h3l5-9v-11l2-1v8l1 1v13l2 4 8 3 5-1q5-2 5-9l3 2v3l3 3 2 5 4 2h9v-2h2l3-5-1-7-7-10-5-4-3-5 3-2q-1-3 2-2l1-3 8-6q4 1 3-2 4 1 5-1-1-3 2-2 3-12-5-15h-11l-1 1q-4-1-3 2l-4 3-3 2-11 10v-9l-2-1v-4l-5-6h-7l-1 2q-4-1-5 3v21l1 1v2l-2-1-1-15-2-2q1-5-1-6-3 1-2-2l-2-1h-3v-2h-12z"/><path fill="#FFF" stroke="#FFF" d="M250 144h14.5q3.2 3.3 10 3l12.5 8 3.5 6q2.3-.7 1.5 1.5l6 9 1 9q-2.3 1.2-1 6l-3 5.5-3 1.5q.8 2.6-2.5 1.5l-5 3h-6l-2 2h-13l-2-2q-6.5 1.5-8-2h-12l-3 2-5.5-3.5q1-3.7-2-2.5v-4q3 1.3 2-2.5l1-3-1-1v-17q2.5-1.5 1-7l-1-2 4.5-6.5h4l.5-2h2.5l5.5-1v-2zm15 45q-2 6 4 4 2-6-4-4zm-31 26h52.5q1.3 3.8 5.5 3-1 5.1 3 6.5v22q-3.2 2-3 6.5-2.7-1.1-2 1.5l-8.5 8.5H280q1.3 3-2.5 2l-4.5 1-.5 2h-13l-1 1h-27l-2.5-1v-2q-3.7 1.5-3-1.5l-1-1v-15q2.5-1.5 1-7l4-7 1-7q-4-1-3-7 1.3-4.2 6-3.5v-2zm106.5 130q5.3-1.2 6.5 1.5l-7.5 5.5-7 1-3.5-1q-1.1-2.7 1.5-2l10-5zm43 11l.5 2 9.5-2 4.5 5.5v5l-5 7.5-9 6.5q.8 2.3-1.5 1.5l-5 3-8.5-3.5 1-8 5-8.5 3-1.5 2-4.5 3-1.5.5-1.5zm-321 3l8.5.5q-9.2.8-13 7l-.5 1.5-.5-5.5 5.5-3.5zM57 378q3-1.2 2 2.5l7.5 4.5q7.5-1.5 10.5 1.5-1.7 5.3-10.5 3.5-1.1-2.7-4.5-2v-4h-2q1.1-2.7-1.5-2l-1.5-4z"/><path fill="#C6B5CC" stroke="#C6B5CC" d="M241.5 93l6.5.5-6.5.5v-1zm30 0l8.5.5-8.5.5v-1zm-40 1l5.5.5-6.5 1.5 1-2zm61 0q6.1-1.2 5.5 1.5l-1.5-.5q-5 1-4-1zm-68 2l2.5.5-7.5 2.5v-1l5-2zm75 0l3.5 2.5-1.5-.5-2-2zm-84 3l1.5.5-5.5 2.5 1-2 3-1zm90 0l5.5 2.5-1.5.5q-4-.5-4-3zm-97 3l1.5.5-2.5 1.5 1-2zm105 0l2.5 1.5-1.5.5-1-2zm-108 2v1-1zm112 0v1-1zm-115 1l1.5.5-2.5 1.5 1-2zm117 0l2.5 1.5-1.5.5-1-2zm-120 2l-1 2-2 1-.5-2 3.5-1zm124 0l4.5 2.5-1.5-.5q-3.8.5-3-2zm-130 3l.5 2-4.5 2v-1l4-3zm136 0l2.5 3.5-3-2 .5-1.5zm-142 5l.5 2-6 4.5q.8 2.3-1.5 1.5l2.5-3.5q-.7-2.2 1.5-1.5l3-3zm145 0l2 3q-2.2.8-1.5-1.5l-.5-1.5zm3 4l4.5 5.5-3-2-1.5-3.5zM178 124l2 .5-2 1V124zm162.5 2l2 3q-2.2.8-1.5-1.5l-.5-1.5zm-163 1v1-1zm-1 2l.5 15.5-1 1-.5 12.5-.5-26.5 1.5-2.5zm167 1l2.5 3.5h-1l-1.5-3.5zm3 8l1.5 2.5v18h-1l-1-2 .5-18.5zm-91 4l3.5.5-3.5.5v-1zm-9.5 1l4 .5-4 1.5v-2zm19.5 0q4.5-1 5.5 1.5l-2.5.5-3-1v-1zm-22 2l-1 2-5 1v-1l6-2zm30 0l4.5 2.5-1.5-.5q-3.7-.2-3-2zm-38 3l-1.5 2.5-1.5 2.5-.5-1.5 3.5-3.5zm44 0q2.3-.7 1.5 1.5l-1.5-1.5zm3 2v1-1zm2 1l4.5 3.5-.5 1.5-4.5-3 .5-2zm5 6q2.3-.7 1.5 1.5l6 7-3-2-1.5-2.5q-2.2.8-1.5-1.5l-1.5-2.5zm-57 1l.5 3.5h-1l.5-3.5zm116 5l.5 8.5h-1l.5-8.5zm-51 4l2.5 7.5h-1l-1.5-7.5zm-66 6l.5 5.5h-1l.5-5.5zm116 0l.5 1.5-2 1 1.5-2.5zm-2 4l-.5 1.5-3.5 5.5-.5-1.5 4.5-5.5zm-171 6l.5 12.5-1 1v66q2.8 1.8 1 8l-1 1-1 29 1 2-2-1v-10l1-1v-99l1.5-8.5zm125 1l.5 1.5-4 8.5-5.5 3 2-3 4.5-3.5 2.5-6.5zm-69 2l1.5 7.5-2-1-1-4 1.5-2.5zm110 0l.5 4.5h-1l.5-4.5zm-1 7l-1 2 1-2zm-107 2l4.5 3.5-1.5.5-3.5-2 .5-2zm105 1l2.5 3.5-2-1-.5-2.5zm-95 1q8.9-1.9 12.5 1.5l-3.5.5q-1.5-2.5-7-1l-4 1v-1l2-1zm45 0l1.5.5-2.5 1.5 1-2zm-30 2l2.5.5-2.5.5v-1zm23 0l3.5.5-3.5.5v-1zm-16 1l12.5.5-12.5.5v-1zm75 2l.5 5.5-1 3 1 5h-1q-2.5-3.5-1-11l1.5-2.5zm-103 11l5.5.5-10.5 2.5 1-2 4-1zm37 0h13l3.5 2.5-1.5-.5q-5.5-2.5-15-1v-1zm18 3l2.5 3.5-3-2 .5-1.5zm-63 1l-1 2 1-2zm112 0v1-1zm1 2l1 2q-2.8.7-1-2zm-115 2l.5 3.5h-1l.5-3.5zm68 0l1.5 1.5 1 8h-1l-1.5-9.5zm49 1l2.5 4.5-2-1-.5-3.5zm-116 4l1.5 2.5-2-1 .5-1.5zm119 3l1.5 2.5-2-1 .5-1.5zm-118 4l.5 2-2-.5 1.5-1.5zm120 1l.5 3.5h-1l.5-3.5zm-122 3v1-1zm70 3l.5 5.5-2.5 5.5-.5-1.5 2.5-9.5zm-71 2l.5 4-2-.5 1.5-3.5zm68 10l.5 2-2-.5 1.5-1.5zm-70 2l.5 7.5h-1l.5-7.5zm68 1l-2 3 2-3zm-4 4l-1 2 1-2zm61 2l.5 4.5h-1l.5-4.5zm-64 1l-2 3-4 2 1-2 5-3zm-60 3q2.3-.7 1.5 1.5l-1.5-1.5zm51 2l1.5.5-7.5 2.5h-8v-1q4.8-2.2 13-1l1-1zm-48 1l2.5 1.5-1.5-.5-1-1zm5 2l13 1 1-1h8v1l-19 1-3-1v-1zm115 0l.5 3.5-2 1 1.5-4.5zm-2 8l.5 1.5-3 6.5-4.5 3 5.5-6.5q-.7-3.7 1.5-4.5zm-9 11l.5 2-2.5 1 2-3zm-4 4l-1 2q-2.2-.7-1.5 1.5h-1l1.5-2.5 2-1zm-5 4l-1 2-2 1 1-2 2-1zm-5 3l-1 2 1-2zm-3 2v1-1zm-3.5 1l2 .5-2 1V303zm-140.5 1v1-1zm2 1l2.5 1-.5 2-2-3zm136 0l-1 2-4 1v-1l5-2zm-131 3l5.5 2.5-2.5.5-3-3zm123 0l1.5.5-8.5 2.5v-1l7-2zm-115 3q6.4-.9 9.5 1.5l-7.5.5-2-2zm69 0l2.5.5-3.5 1.5 1-2zm6 0l9.5 1.5-8.5.5-1-2zm24 0l5.5.5q-3 3-10.5 1.5v-1l5-1zm-87 2l1.5.5-1.5.5v-1zm52 0l1.5.5-1.5.5v-1zm-49 1l5.5 1.5-3.5.5-2-2zm41 0l5.5.5q-2.7 2.3-8.5 1.5v-1l3-1zm294 3q5.3-1.2 6.5 1.5l-1.5-.5-8 1v-1l3-1zm-9 2l2.5.5-3.5 1.5 1-2zm17 0l1 2-1-2zm-25 2l3.5.5-3.5.5v-1zm-6 1l3.5.5-5.5 1.5v-1l2-1zm33 0q2.8 1.3 1.5 6.5l-3.5 4.5-6 2v-1l6.5-2 2-7.5-.5-2.5zm-41 2l1.5.5-6.5 4.5-.5-2q3 1 2-2h2.5l1-1zm-173 3h13l4.5 2.5-1.5.5q-4.3-3.7-14-2l-8 2v-1l6-2zm-9 3l1.5.5-2.5 1.5 1-2zm28 0l8.5 7.5 1 2-2 .5q-.4-4.7-4.5-7l-3-3zm148 0l1.5 7.5h-1l-.5-7.5zm-54 1l1.5.5-1.5.5v-1zm-125 1v1-1zm120 0l1.5.5-2 .5-2.5 4-.5-1.5 3.5-3.5zm-123 1l1.5.5-2.5 1.5 1-2zm102 0q5.3-1.2 6.5 1.5l-1.5.5-3-1-3 1 1-2zm32 0l1 2q-2.8.7-1-2zm28.5 0l2 .5-2 1V333zm7.5 0l2.5 1.5-1.5-.5-1-1zm-173 2l.5 2-2.5 1-.5-2 2.5-1zm74 0l7.5 1-.5 2q-1.7-2.8-7-2l-3 1v-1l3-1zm28 0l.5 1.5-3 6q2.8 1.8 1 8h-1l-1-10 3.5-5.5zm11 0l1 2q-2.8.7-1-2zm51 0l-.5 1.5q-2.7 3.8-1 12l-1.5 3.5-.5-4.5 1-1v-8l2.5-3.5zm55 0l2.5.5-9.5 2.5 1-2q4.8 1.3 6-1zm-80 1l2.5 4.5-2-1-.5-3.5zm38 0v1-1zm-181 2l.5 2-4.5 3 4-5zm64 0l1.5.5-3.5 1.5v-1l2-1zm8 0l1.5.5-1.5.5v-1zm15 0l4.5 3.5 2 3 2.5 3.5-5.5-7-4-1 .5-2zm32 0q2.8 1.3 1.5 6.5h-1l-.5-6.5zm63 0l1.5 4.5-1.5 6.5v-11zm32 0l1 2q-2.8.7-1-2zm-22 1v1-1zm-282 1l1.5.5-1.5.5v-1zm6 0l1.5.5-1.5.5v-1zm23 0l3.5.5-3.5.5v-1zm121 0l-2 3 2-3zm134 0v1-1zm6 0l1.5.5-1.5.5v-1zm-456 1l4.5.5-5.5 1.5 1-2zm19 0q4.5-1 5.5 1.5l-2.5.5-3-1v-1zm143.5 0l2 .5-2 1V341zm12.5 0q2.3-.7 1.5 1.5l-1.5-1.5zm17 0l1.5.5-3.5 2.5 2-3zm8 0h1.5v2q2.7-1.1 2 1.5l-3.5-3.5zm32 0q5.3-1.2 6.5 1.5l-1.5.5-3-1-3 1 1-2zm240 0l.5 1.5h-1l.5-1.5zm-477 2l1.5.5-6.5 2.5v-1l5-2zm33 0l4.5 2.5-1.5-.5q-3.8.5-3-2zm133 0l-1 2 1-2zm67 0l1.5.5-3.5 1.5v-1l2-1zm12 0l3.5 2.5-1.5.5-2-3zm67 0l.5 3 4.5-3 .5 1.5-6 3.5.5-5zm149 0l.5 2.5h-1l.5-2.5zm-277 1l2.5 1.5-1.5.5-1-2zm72 0l.5 6.5-2-1q-1-4.5 1.5-5.5zm28 0h11l.5 1.5-1.5-.5q-8.2-1.7-12 1v-1l2-1zm123 0l2.5 6.5h-1l-1.5-6.5zm-213 1l-.5 1.5 1 15h-1l-1-15 1.5-1.5zm-202 1l1.5.5-4.5 2.5 1-2 2-1zm48 0l2.5 1.5-1.5.5-1-2zm87 0l2.5.5-2.5 1.5-8 1v-1l8-2zm13 0l6.5 3.5 2 4-2 .5-1-5-5.5-2v-1zm23 0l-1 2 1-2zm46 0l1.5 2.5-2-1 .5-1.5zm19 0l1.5.5-4.5 3.5 3-4zm51 0l-1 2-2.5 1.5q1.7 5.9-2 4.5v-5h1.5l4-3zm-225 1l5.5 1.5-1.5.5-4-1-1.5.5 1.5-1.5zm17 0h13l2.5 1.5-1.5.5-1-1h-13l-2 1v-1l2-1zm116 0l1.5 3.5h-1l-.5-3.5zm62 0l.5 1.5h-1l.5-1.5zm46 0l.5 1.5h-1l.5-1.5zm-184 1l3.5.5-3.5.5v-1zm-67 1v1-1zm17 0l1 2-1-2zm3.5 0q3-1 2 2-3 1-2-2zm43.5 0l.5 2-3 1.5-.5 1.5-.5-1.5 3.5-3.5zm51.5 0q3-1 2 2-3 1-2-2zm132.5 0l.5 2-2-.5 1.5-1.5zm67 0l1.5 3.5-2-1 .5-2.5zm23 0l.5 6.5h-1l.5-6.5zm95 0l.5 3.5h-1l.5-3.5zm-490 1l.5 2-2-.5 1.5-1.5zm63 0l-1.5 2.5-1 2-.5 38.5-1.5-4.5v-24l-1-2 1-1V354q2.7 1.1 2-1.5l2.5-2.5zm39 0l2 3-2-3zm371 0l.5 6.5-1 1v8l1 5h-1l-1-2v-14l1.5-4.5zm-415 1v1-1zm178 0l-5 6 5-6zm66 0v1-1zm-130 1l-.5 1.5-1.5 2.5-.5-1.5 2.5-2.5zm90 0l.5 1.5h-1l.5-1.5zm8 0l.5 1.5h-1l.5-1.5zm30 0l-1 2-1.5-.5 2.5-1.5zm123 0l1.5 3.5-2-1 .5-2.5zm-71 1l-1 2-9 1-4.5 4.5-2 3-2 1 5-7.5q3.1.8 2.5-2h8l3-2zm103 0l.5 2.5h-1l.5-2.5zm-457 1l.5 1.5q-2.5 1.5-1 7l1 2h-1l-1-9 1.5-1.5zm108 0l1.5 2.5-2-1 .5-1.5zm96 0l.5 4.5h-1l.5-4.5zm90 0l4.5.5-3.5 1.5-1-2zm62 0l5.5 6.5v6l-2 1 1-6-4.5-7.5zm-93 1l-3 4-1.5-.5 4.5-3.5zm113 0q2.3.8 1.5 4.5h-1l-.5-4.5zm64 0l.5 1.5-1.5 2.5-.5-2.5 1.5-1.5zm-416 2h13l.5 1.5-3 1.5-.5-2h-8l-3 1 1-2zm147 0l.5 1.5-2.5 3.5-.5-1.5 2.5-3.5zm210 0l1.5 5.5v8l-1.5 3.5v-17zm46 0l.5 1.5h-1l.5-1.5zm64 0l.5 8.5h-1l.5-8.5zm-260 1l-2 3 2-3zm-211 1v1-1zm90 0l1.5 1.5v8l-1.5 2.5-.5-4.5 1-4-.5-3.5zm9 0l.5 9.5-2 1 1.5-10.5zm135 0l1.5.5-6.5 5.5-.5-2 5.5-4zm202 0l.5 2.5-2 1 1.5-3.5zm-438 1l.5 4.5-1.5 2.5-.5-1.5 1.5-5.5zm14 0l1.5.5-2.5 1.5 1-2zm131 0l.5 2.5-3.5 5.5.5-1.5 2.5-6.5zm63 0l1.5 2.5-2 .5.5-3zm202 0q2.3-.7 1.5 1.5l-1.5-1.5zm10 0l.5 1.5h-1l.5-1.5zm-411 2l1.5.5-6.5 4.5 3-4 2-1zm161 0l.5 5-3-.5 2-1-2-.5q-1.1-2.7 1.5-2l1-1zm-97 1l3.5 1.5q1.1 3.3-1.5 2.5l-3 1v-1l3.5-1q1.1-2.7-1.5-2l-3 1v-1l2-1zm50 0l5.5.5-5 1 3.5 1.5 2-1-1 2h-10l-1.5-1.5 1.5.5 4.5-.5-2-1 2.5-1.5zm27 0l.5 1.5-1.5 2.5-.5-1.5 1.5-2.5zm37 0l1.5 4.5h-1l-.5-4.5zm225 0l4 4 1.5-1.5 1.5-2.5.5 1.5-4.5 3.5-3-5zm-114 1v1-1zm-258 1l1.5.5-2 .5q1.1 2.7-1.5 2l-4.5 3.5 3 5-3-2q.7-2.6-2-1.5v-2l8.5-6zm27 0l1.5.5-4 2 3 1q-1.2 2.5-5 1.5l2.5-4 2-1zm228 0l-1 2-2 1 1-2 2-1zm141 0l.5 1.5h-1l.5-1.5zm-208 1l1.5.5-1.5.5v-1zm69 0l.5 1.5-1.5 2.5-.5-2.5 1.5-1.5zm19 0l.5 2-2-.5 1.5-1.5zm68 0l.5 5.5-2.5 6.5-.5-2.5 2.5-9.5zm-192 1l1.5 2.5 1 8h-1l-1.5-10.5zm167 0l.5 3.5-2 1 1.5-4.5zm115 0v1-1zm-492 1l.5 34.5h-1l.5-34.5z"/><path fill="#C6B5CC" stroke="#C6B5CC" d="M58 368q2.7-1.1 2 1.5l-1 4 1 4h-1l-1-9.5zm138.5 0l.5 2-3-.5 2.5-1.5zm8 0l.5 2-2-.5 1.5-1.5zm78 0l.5 2-2-.5 1.5-1.5zm62 0l1.5.5-3.5 1.5v-1l2-1zm147 0l.5 1.5-2 1 1.5-2.5zm-180 1l1.5 9.5h-1q-2.4-3.3-.5-9.5zm59 0v1-1zm27 0v1-1zm134 0q3 1.5 1.5 7.5l-2 1 1-6-.5-2.5zm-339 1l1 2-1-2zm9 0l-2 3-.5-2 2.5-1zm44 0l.5 11.5h-1l.5-11.5zm84 0l2.5.5-3 .5-.5 3-.5-2.5 1.5-1.5zm7 0l3.5.5-3.5.5v-1zM154 371l2 .5q-2.5 1.5-1 7l4 5v2h-1v-2l-4-5V371zm125.5 0l.5 1.5-1 2 7 8-2 .5-6-9.5 1.5-2.5zm90 0l.5 1.5-1.5 2.5-.5-1.5 1.5-2.5zm25.5 0l2 .5-10 9q-.7-2.2 1.5-1.5l1.5-3 5-3.5V371zm94.5 1l-.5 1.5-1.5 2.5.5-1.5 1.5-2.5zm-342 1l-.5 1.5-.5 1.5-.5-1.5 1.5-1.5zm47 0q3.3 1.8 1.5 8.5l-2 1 1-7-.5-2.5zm157 0l.5 11.5h-1l.5-11.5zm62 0l.5 1.5-2.5 3.5.5-1.5 1.5-3.5zm101 0v1-1z"/><path fill="#C6B5CC" stroke="#C6B5CC" d="M198.5 374l.5 1.5-1 2 1 3-2-1q-1-4.5 1.5-5.5zm237 0l.5 4.5h-1l.5-4.5zm21 1l.5 1.5-2 1 1.5-2.5zm59 0l1 2-1-2zm-57 1l2 3q2.3-.7 1.5 1.5l-4-3 .5-1.5zm-314 1l-1 2 1-2zm274 0l.5 1.5-1 4 1 2-2-1q-1.2-5.2 1.5-6.5zm67 0l1.5.5-1.5.5v-1zm-392 1l2.5 5.5h-1l-1.5-5.5zm236 0l.5 2.5h-1l.5-2.5zm188 0l2.5 1-.5 2-2-3zm-457 1v1-1zm79.5 0q3-1 2 2-3 1-2-2zm269 0q3-1 2 2-3 1-2-2zm29.5 0l1.5 4.5h-1l-.5-4.5zm45 0l.5 2-6.5 3v-1l6-4zm46 0l.5 2-2-.5 1.5-1.5zm-75 1l.5 1.5-1.5 2.5-.5-1.5 1.5-2.5zm-399 1l2.5 1-.5 2-2.5-1 .5-2zm6 0l8.5 2.5-3.5.5-5-2v-1zm77 0l-1 2-4 1v-1l5-2zm296 0l.5 2.5-2 1 1.5-3.5zm88 0l4.5.5-4.5.5v-1zm-323 1l1.5 1.5q-1.7 8.2 1 12l-2-1v-11l-.5-1.5zm169 0l.5 1.5h-1l.5-1.5zm16 0l1.5.5-2.5 1.5 1-2zm24 0l-3 4 3-4zm55 0l4.5 1.5-1.5.5-3-1v-1zm-287 1q5-.5 5.5 3.5l-2 .5-1.5-3q-4.6-1.4-2.5 4.5v2l-.5 2.5-.5-8.5 1.5-1.5zm75 0q2.7 3.8 1.5 11.5l-2-1 .5-10.5zm-192 1l1.5 2.5-2-1 .5-1.5zm19 0v1-1zm53 0l2 3-2.5-1 .5-2zm62 0l.5 1.5-2 1 1.5-2.5zm25 0l-.5 1.5-.5 5.5q-2.2-.7-1.5-4.5l2.5-2.5zm2 0l.5 2.5q-2.3 1.3-1 6l.5 1.5q-2.6-.8-1.5 2.5h-1l2.5-12.5zm67 0l6.5 10.5-2-1-5-8 .5-1.5zm26 0q2.3 1.8 1.5 6.5l4.5 5.5 1.5.5-1.5.5-3.5-2q-2.9-4.2-2.5-11zm16.5 0l2 .5v7.5q-2.7 1.1-2-1.5l1-3-1-3.5zm40.5 0l10 1 1.5-.5-1.5 1.5h-8l-2-2zm-126 1l.5 1.5-3 5.5-4.5 3-.5-2 6-4.5 1.5-3.5zm197 0l4.5 1.5-2.5.5-2-2zm8 0l2.5.5-4.5 1.5v-1l2-1zm-370 1l-.5 1.5q.8 2.3-1.5 1.5l-1.5.5 3.5-3.5zm340 0l3.5 2.5-1.5.5-2-3zm13 0l-2 3-1.5-.5 3.5-2.5zm-297 1l4.5 3.5-.5 1.5-.5-2-4-1 .5-2zm48 0l5 1 2-1-1 2H183l.5-2zm169 0l1.5 3.5-2-1 .5-2.5zm50.5 0l2 .5-4.5 3.5 1-2q2.6.7 1.5-2zm-133.5 1l-.5 1.5q1 4.5-1.5 5.5l.5-1.5q-1-4.5 1.5-5.5zm-208 1v1-1zm34 0l.5 2.5-2.5 3.5.5-1.5 1.5-4.5zm329 0l3.5.5-3.5.5v-1zm-360 1l10.5.5q-2.1 2.4-7.5 1.5l-3-1v-1zm206 0q2.3-.7 1.5 1.5l6 8h-1l-2-4.5q-2.7 1.1-2-1.5l-2.5-3.5zm-129 2l2 3-2-3zm214 0l1.5 2.5-2-1 .5-1.5zm43 0l-2 3 2-3zm-69 1v1-1zm-170 1l1.5 4-3.5 2 1.5-2.5.5-3.5zm34 1l3.5 2.5-1.5-.5-2-2zm28 0q2.3-.7 1.5 1.5l-1.5-1.5zm13 0l.5 2-2-.5 1.5-1.5zm92 0l1.5.5-2.5 1.5 1-2zm32 0l6.5 4.5-1.5.5-5-5zm36 0l.5 2-2-.5 1.5-1.5zm-302 1l-1.5 2.5-3.5 4.5.5-1.5 2-3 2.5-2.5zm53 0q8-1.5 10.5 2.5l-1.5-.5-9-1v-1zm108 0l1 2-1-2zm-29 1l1.5.5-1.5.5v-1zm5 0l2.5.5-2.5.5v-1zm36 0l1.5.5-4.5 2.5 1-2 2-1zm-164 1l.5 2.5h-1l.5-2.5zm18.5 0q4.1-1.3 3 2-4.1 1.3-3-2zm82.5 0q2.3-.7 1.5 1.5l2.5 3.5-2.5-1.5-1.5-3.5zm54 0l1 2q-2.8.7-1-2zm133 0l.5 2-2-.5 1.5-1.5zm-192 1q2.8 1.3 1.5 6.5l-3 5.5q-3 1-2-2l3-1.5 1-6-.5-2.5zm20 0l-3 4-1.5-.5 4.5-3.5zm-93 1l6.5 4.5-1.5.5-5-5zm169 0l.5 1.5-2 1 1.5-2.5zm73 0l13 2 7-2-1 2-12 1-7-2v-1zm-88 1q1.6 4.9 9 4l3-1v1l-7 1-5.5-3 .5-2zm-193 2l-1 2-2 1 1-2 2-1zm17 0l1.5 4.5h-1l-.5-4.5zm17 1l.5 3.5-2 3.5-2-.5 3.5-6.5zm-63 2l.5 5.5-3.5 4.5-.5-2q2.7 1.1 2-1.5l1.5-6.5zm4 0l7.5 1.5-6.5.5-1-2zm16 0l3.5.5q-2.1 2.4-7.5 1.5v-1l4-1zm56 0l4.5 3-.5 2-4.5-3 .5-2zm-93 2l1.5 2.5-2-1 .5-1.5zm66 1l.5 1.5h-1l.5-1.5zm51 0q2.3-.7 1.5 1.5h-3l1.5-1.5zm-49 2l4 1 3-1v1l-6 1-1-2zm31 0l3.5 1-.5 2-3-3zm15 0l-1 2-3 1 1-2 3-1zm6 0l1 1h15l1-1h15v1h-14l-1 1-13 1q-4-.5-4-3zm-118 1l3 4 1.5.5-1.5.5-2.5-1-.5-4zm9 4l1.5.5-1.5.5v-1z"/><path fill="#961DC0" stroke="#961DC0" d="M248.5 93h22l1 1h20l5 1 10 6 6 1 12 7 4.5 1 4 8q2.7-1.1 2 1.5 5 3.5 6 9.5 2.7-1.1 2 1.5l3 4v22l2 3v13l-7 10-1 10-3 4 3 5q-3.8 3.2-2 12l3 7.5q3-1.2 2 2.5l3 4 3 11v22l-1 1v8l-2 3v5q-2.7.8-2 5l-6.5 6.5-8.5 6.5q.8 2.3-1.5 1.5l-7 5-4.5 1q1.3 3-2.5 2l-16 6-22 2q-5.7-3.2-16-2l-2 2-11 1-4 2h-31l-15-5h-8l-8.5-3q1.1-2.7-1.5-2l-4.5-3.5q-2.3-3.2-1-10l1-1 1-28-1-1v-66l1-1v-37l1-1v-12l1-1v-16l3-5.5q2.7 1.1 2-1.5l6-4.5 1.5-3 4.5-2q-1.2-3 2.5-2l21-11q6.8.3 10-3h6l4-2h10l1-1zm7.5 49l-1 1h-8l-1 2-10 3-4 4v21l-1 1q-1 4 1 6 2 7-2 6l-1 3 3 8 4 2h8l1-1h6l14 3 19-1 12-6 4-8q2-21-9-27 1-3-2-2v-2l-6-5q-3 1-2-2-5 1-6-3h-3l-2-2-14-1zm-19 71l-7 3-4 6q0 5 3 8v3l-2 2-1 7-2 4v8l-1 1q-1 8 3 12 2-1 1 2l9 3h11l9-2 19-1q11-4 17-13-1-3 2-2l3-8v-19l-5-11-5-3h-50z"/><path fill="#9D9D9D" stroke="#9D9D9D" d="M540.5 318l1.5.5-8.5 2.5 1-2q4.7 1.3 6-1zm4 0l5.5 3.5-.5 1.5-2-3q-3.8-.2-3-2zm-17 3l1.5.5q-1.5 3-7.5 1.5v-1q4.8 1.3 6-1zm-8 2v1-1zm-8 1l5.5.5-7.5 1.5v-1l2-1zm39 0l.5 2.5h-1l.5-2.5zm-43 2l-2.5 3.5q-.8 6.1 1 8.5l5.5 2 5.5-1-2.5 10-.5-2.5 2-6-1.5-.5-5 1-4.5-3.5-1-8 3.5-3.5zm-169 2l10.5.5-10.5.5v-1zm-6 1l1.5.5-6.5 2.5v-1l5-2zm19 0l4.5 2.5-1.5.5-3-3zm198 0l-.5 1.5q.8 2.3-1.5 1.5l2-3zm-224 3l-1 2-2 1 1-2 2-1zm121 0l-2 3-.5-2 2.5-1zm6 0l2.5 1.5-1.5.5-1-2zm-95 1l4.5 3.5 1 2-3-2q.8-2.2-1.5-1.5l-1-2zm129 0q6.2-.6 8.5 2l1 2.5-3.5-2.5-6-1-1.5.5 1.5-1.5zm56 0l1.5.5-8.5 2.5v-1l7-2zm-117 1l2.5.5-2.5.5v-1zM319 335l2 .5-2 1V335zm102 0l2 .5-3.5 4.5-.5-1.5 2-3.5zm8.5 0h1.5v2q2.7-1.1 2 1.5l-3.5-3.5zm27 0l1.5 2.5-2-1 .5-1.5zm27 0l.5 1.5-3 2 2.5-3.5zm-91 1l4.5.5-4.5.5v-1zm50 0l.5 1.5-1 1-.5 30.5-.5-31.5 1.5-1.5zm85.5 0l3 .5-3 1.5-.5 2-.5-1.5 1-2.5zm-210.5 1l-2 3-.5-2 2.5-1zm72 0l1.5.5-2 .5q1.3 3-2.5 2l-5-1-2 1 1-2 7 1 2-2zm9 0l2.5 1-.5 2-2-3zm-172 3q5.5-.5 7.5 2.5l-1.5-.5-6-1-4 2 1-2 3-1zm87 0l-3 4 3-4zm50 0q3.4-.9 1.5 4.5h-1l-.5-4.5zm12 0l.5 2-2.5 1 2-3zm58 0l.5 3.5h-1l.5-3.5zm25 0l2.5 6.5-2-1-.5-5.5zm71 0l.5 2.5h-1l.5-2.5zm-466 1l13.5.5-13.5.5v-1zm189 0q5.3-1.2 6.5 1.5l-1.5-.5q-4.8-1.2-6 1l1-2zm151 0q2.3-.7 1.5 1.5l2.5 3.5-4-5zm-343 1l1.5.5-1.5.5v-1zm18 0l1.5.5-1.5.5v-1zm214 0l2.5.5-2.5.5v-1zm126 0v1-1zm-363 1l2.5.5-4.5 1.5v-1l2-1zm27 0q3.8-.7 4.5 1.5l-1.5.5-3-1v-1zm138 0l.5 2-3 1.5-1.5 2.5-1.5-.5 5.5-5.5zm15 0q2.3-.7 1.5 1.5l-1.5-1.5zm14 0l.5 1.5q-3.1 1.4-2.5 6.5l-.5-4.5 2.5-3.5zm39 0l2.5.5-6.5 2.5-6.5 5-1.5 3-7.5 6.5q.7 2.6-2 1.5v2h-4v-14.5l-1-1 2 1v13l1.5.5 4.5-6 18.5-14zm8 0l2.5 1.5-1.5.5-1-2zm44 0l6.5.5-6.5.5v-1zm31 0l.5 1.5h-1l.5-1.5zm-111 1l1 2-1-2zm75 0l1.5.5-3.5 1.5v-1l2-1zm14 0l.5 4.5-4 2.5q-1.1-3.3 3-2l.5-5zm-299 1l1.5.5-1.5.5v-1zm38 0l1.5.5-1.5.5v-1zm346 0l1.5 16.5h-1q-2.8-6.3-.5-16.5zm-387 1l1.5.5-3.5 1.5v-1l2-1zm44 0l6.5 4.5 1 5h-1v-3l-4.5-4.5-2-2zm92 0q8.2-1.7 11.5 1.5l-2.5.5q-1.7-2.7-8-1l-3 1v-1l2-1zm56 0l.5 1.5h-1l.5-1.5zm62 0l1.5 5.5-3.5 5.5 1.5-2.5 1-5-.5-3.5zm29 0l1.5.5-3.5 2.5-.5-2 2.5-1zm38 0l.5 2-3.5 1v-1l3-2zm41 1l2.5 3.5-2-1-.5-2.5zm121 0l.5 1.5-1.5 8.5-.5-8.5 1.5-1.5zm-423 1h3l7.5 3.5-3 1.5q1.1-2.7-1.5-2l-6-2-4.5 3.5-1.5 3.5-.5-1.5 3-5.5 3.5-1zm17 0l1.5.5-5.5 2.5-.5-2 4.5-1zm12 0l5.5 1-.5 2-5-2v-1zm39 0l1.5.5-2.5 1.5h-11l-1 1-.5-2h12.5l1-1zm244 0l1.5 13.5h-1l-.5-13.5zM41 349l2 .5-2 1V349zm156.5 0q2.3-.7 1.5 1.5l.5 1.5-2-3zm43 0l1.5 2.5 1 13h-1l-1.5-15.5zm221 0l1.5 4.5h-1l-.5-4.5zm19 0l.5 3.5-1.5 3.5-.5-3.5 1.5-3.5zm-320 2l-.5 1.5-1.5 3.5-.5-1.5 2.5-3.5zm53 0l.5 1.5-2 1 1.5-2.5zm130 0l1.5.5-4.5 2.5 1-2 2-1zm152 0l.5 1.5q-2.2 1.3-1 6l-1.5 1.5-.5-1.5 2.5-7.5zM39 352l2 .5-2.5 4.5.5-1.5V352zm104.5 0l4.5 6.5-2-1-2.5-5.5zm105 0l1.5 16.5h-1l-1-2 .5-14.5zm63 0l.5 16.5h-1l.5-16.5zm81 0l4.5 3.5-2.5-1.5-2-1-3 2 1-2 2-1zm20 0l1.5 3.5h-1l-.5-3.5zM200 354q4-1.4 2 5.5l-1.5 2.5-.5-2.5 1-3-1-2.5zm129.5 0l3.5 1.5-1.5.5-2-2zm8 0l1.5.5-3.5 1.5v-1l2-1zm45 0l1.5.5-1.5.5v-1zm-171 1l.5 1.5-2 1 1.5-2.5zm169 0l.5 1.5h-1l.5-1.5zm83 0l1.5 3.5h-1l-.5-3.5zm-399 1l9.5.5-9.5.5v-1zm-3 1l-1 2-4 1 1-2 4-1zm14.5 0l2 .5-2 3.5-4.5 1 1-2 3.5-1.5V357zm221.5 0l-1 2-4.5-.5 5.5-1.5zm101 0l1.5 2.5-2-1 .5-1.5zm16 0l.5 1.5h-1l.5-1.5zm64 0l.5 1.5-2.5 5.5-.5-1.5 2.5-5.5zm35 0l.5 8.5h-1l.5-8.5zm-135 1l-4.5 5.5-2.5 3.5 1.5-2.5 5.5-6.5zm150 0l.5 6.5h-1l.5-6.5zm-319 1l-.5 1.5-1.5 3.5-.5-1.5 2.5-3.5zm81 1l-2 3 2-3zm125 0l.5 6.5h-1l.5-6.5zm-317 1l-.5 1.5-.5 2.5-.5-2.5 1.5-1.5zm128 0q2.5 1 1.5 5.5h-1l-.5-4.5-2 1v-1l2-1zm240 0l3.5 5.5h-1l-2.5-5.5zm-428 1l1.5 1.5v43l1 2-2-1v-44l-.5-1.5zm29 0l1.5.5-2.5 1.5 1-2zm81 0l.5 3.5h-1l.5-3.5zm35 0l1.5.5-1.5.5v-1zm217 0l.5 2.5h-1l.5-2.5zm-345 1l.5 1.5-1 1-.5 17.5-.5-17.5 1.5-2.5zm71 0l2.5.5-4.5 1.5v-1l2-1zm6 0q3-.9 1.5 3.5h-1l-.5-3.5zm43 0l3.5.5-4.5 1.5 1-2zm111 0l.5 1.5-3 1.5q1.1 2.7-1.5 2l-1.5 3q-2.7-1.1-2 1.5l-2 1 7.5-8.5q2.5.7 2-2zm65.5 0h4v1.5l-1.5 2.5-.5-2q-3 1-2-2zm3 1v1-1zm137.5-1l.5 1.5-2.5 4.5.5-1.5 1.5-4.5zm-429 1l1.5.5-4.5 3.5 3-4zm122 0l1.5 3-2-.5.5-2.5zm14 0l-.5 1.5-1.5 2.5-.5-1.5 2.5-2.5zm-77 1v1-1zm84 0l.5 1.5-1.5 3.5-.5-2.5 1.5-2.5zm16 0q2.6-.8 1.5 2.5h-1l-.5-2.5zm128 0v1-1zm125 0l-.5 1.5-1.5 2.5-2.5-.5 4.5-3.5zm-381 1l-2 3-4 2 1-2 5-3zm26 0l-1.5 2.5 1 2-2 .5q-.7-3.8 2.5-5zm53 0l1 2-1-2zm70 0l1.5 2.5v16l-6.5 8.5 3.5-4.5 2-4v-16l-.5-2.5zm104 0l1.5.5-3.5 1.5v-1l2-1zm182 0l1.5 2.5-2-1 .5-1.5zm-130 1l-.5 1.5v2L385.5 384l-4 2 1-2 3.5-1q-1.1-2.7 1.5-2 7.9-5.1 12-14zm-275 1l5.5.5-6.5 1.5 1-2zm70 0l1.5.5-4 2 2 3-2-1-1-2 3.5-2.5zm148 0l1.5.5-2.5 1.5-9 1-3-1-2 3-.5-2.5 1.5-1.5h13l1-1zm11 0l.5 1.5-1 1v16l1 2h-1l-1-2v-16l1.5-2.5zm15.5 0l2 .5-2.5 4.5-.5-1.5 1-3.5zm45.5 0l.5 1.5h-1l.5-1.5zm-257 1l-.5 1.5-1.5 2.5.5-1.5 1.5-2.5zm278 0l.5 4.5-2.5 9.5-.5-1.5 2.5-12.5zm-376 1l.5 3.5h-1l.5-3.5zm143 0l-2.5 3.5-.5 1.5-.5-1.5 3.5-3.5zm287 0l.5 1.5-2 1 1.5-2.5zM146 371q2.7-1.1 2 1.5l-5.5 6.5-.5-1.5 3-1.5 1-5zm166.5 0l.5 2.5h-1l.5-2.5zm101 0l.5 1.5-1.5 2.5-.5-1.5 1.5-2.5zm7 0l.5 3.5-1.5 3.5-.5-3.5 1.5-3.5zm94 0l4.5 7.5-2-1-3-5 .5-1.5zm17 0l.5 1.5h-1l.5-1.5zm-91 1v1-1zm-351 1l.5 1.5h-1l.5-1.5zm161 0l1.5 1.5 1 11h-1l-1-11-.5-1.5zm78 1l1.5 8.5-2-1 .5-7.5zm126.5 0l4 1.5-1.5.5-2.5-.5V374zm32.5 0l-.5 1.5v1.5h-2q1.1 2.7-1.5 2l-3.5 2.5 7.5-7.5zm44 0l.5 1.5h-1l.5-1.5zm-337 1l.5 3.5h-1l.5-3.5zm84 0v1-1zm-187 1l2.5 3.5-3-2 .5-1.5zm107 0l.5 1.5h-1l.5-1.5zm169 0l.5 6.5h-1l-1-5 1.5-1.5zm44 0l-.5 1.5-.5 1.5-.5-1.5 1.5-1.5zm28 0l.5 4.5h-1l-1-2 1.5-2.5zm-379 1l3 4 1.5.5-1.5.5-2.5-1-.5-4zm219 0l4 5-4-5zm34 0l1.5 8.5h-1q-2.3-2.9-.5-8.5zm146 0l1 2-1-2zm-304 1l2.5 4 2 .5v11l.5 1.5-1.5-1.5v-10l-3.5-5.5zm375 0v1-1zm-112 1l.5 3.5h-1l.5-3.5zm34.5 0l2 .5-3.5 5.5-1.5-.5 2-.5 1-5zm67.5 0q1.5 2.5 7 1l1.5-.5-1.5 1.5H520l.5-2zm-382 1l1.5.5-2.5 1.5 1-2zm61 0l1.5 2.5-2-1 .5-1.5zm263 0l2.5 1.5-1.5.5-1-2zm-368 1l1.5 7.5-1.5 3.5v-11zm312.5 0l2 .5-4.5 5.5-.5-1.5 3-4.5zm-339.5 1q7.7-1.2 11.5 1.5l-8.5.5-3-1v-1zm65 0l2.5.5-4 1.5-.5 2-1-2 3-2zm42.5 0h5v1.5l2.5 3.5-4-4h-2q-2.6 1.4-2 6l-.5-4.5 1-2.5zm18.5 0l.5 1.5-2 3.5-2-.5 3.5-4.5zm247 0l.5 2 2 .5-1.5.5-1-3zm26 0l10 1 2-1v1q-3.2 2.3-10 1l-2-2zm-410 1v1-1zm162 0l3.5 1.5-1.5 3.5.5-1.5q1.3-3.7-2.5-2.5l-2.5 1.5q-.7-2.2 1.5-1.5l1-1zm66 0l2.5 1.5 2 3-4.5-4.5zm-226 1l2.5 5q-3 1.3-2-2.5l-.5-2.5zm143 0l.5 1.5h-1l.5-1.5zm168 0l2.5 1.5-1.5.5-1-2zm50 0l1.5 2.5-2-1 .5-1.5zm13 0l.5 1.5-2 1 1.5-2.5zm-353 1q3 1.5 0 3v-3zm365 0l4.5.5-2.5 1.5-2-2zm-312 1l2.5 1-.5 2-2-3zm244 0l2.5.5-2.5.5v-1zm-192 1l4.5.5-4.5.5v-1zm83.5 0l3 1.5-.5 1.5-1-2-1.5.5V387zm62.5 0l.5 2.5h-1l.5-2.5zm92 0q1.2 2.3 6 1l1.5-.5q-1.2 2.8-6.5 1.5l-1-2zm-21 1l1.5.5-1.5.5v-1zm-324 1l-1 2-3 1v-1l4-2zm212 0l1.5 2.5h-1l-.5-2.5zm-228 1l5.5 1.5-2.5.5-3-1v-1zm76 0q2.3-.7 1.5 1.5l-1.5-1.5zm79 0q3.3 1.8 1.5 8.5-1.9 5.6-10.5 4.5l-3-4q1.3 4.3 8 3l3.5-2.5 1-7-.5-2.5zm99 0v1-1zm39 0l1 2q-2.8.7-1-2zm45 0l.5 2-9.5 6 1-2 8-6zm-225 1l.5 4h17.5l1.5 1.5-1.5.5-1-1h-14l-3.5 1 .5-6zm46 0l1.5 3.5h-1l-.5-3.5zm52 0l5.5 6.5-2-1-3.5-5.5zm-132 1l4.5 3q1 3-2 2l-1.5-3q-2.8.7-1-2zm61 0l2.5 5.5-2 .5-.5-6zm66 0l.5 1.5-1 3.5-2-.5 2.5-4.5zm49 0q2 4 8 4l1.5-.5q-.7 2.3-4.5 1.5l-5-5zm13 0l-.5 1.5q.8 2.3-1.5 1.5l2-3zm-236 1l-.5 1.5-1.5 2.5-.5-1.5 2.5-2.5zm143 0l.5 2-2-.5 1.5-1.5zm121 0l4.5 3.5-1.5.5-3.5-2 .5-2zm-65 1q2.5 1 1.5 5.5l-2 1 1-5-.5-1.5zm-191 1q2.4 2.1 1.5 7.5h-1l-.5-7.5zm132 0l-1 2-6 1-3.5-1.5 3.5-.5 2 1 5-2zm20 0q2.3-.7 1.5 1.5l.5 1.5-2-3zm-92 1l.5 1.5-4 2.5q1 3-2 2 1.1-2.7-1.5-2l-2-3 5 3 3.5-2 .5-2zm34 1l1 2q-2.8.7-1-2zm-106 1l.5 2-2-.5 1.5-1.5zm30 0l.5 5.5-1.5 2.5-.5-1.5 1.5-6.5zm138 0l4 1 1.5-.5q-.7 2.3-4.5 1.5l-1-2zm107 0l5.5 2.5-1.5.5q-4-.5-4-3zm23 0l1.5.5-4.5 2.5v-1l3-2zm-264 1h2l4.5 4.5-4.5-3.5q-3 .5-2-1zm155 0l1.5 2.5-2-1 .5-1.5zm-192 2l1.5.5-8.5 4.5v-1l7-4zm111 0l.5 3.5h-1l.5-3.5zm178 0l4.5.5-4.5.5v-1zm-84 1l-1 2-1.5-.5 2.5-1.5zm-10 1v1-1zM55 404l6 1.5-6 .5v-2zm48.5 0v1-1zm28 0l4 5-4.5-3 .5-2zm152 0l4.5.5-4.5.5v-1zm-219 2l2.5.5-2.5.5v-1zm10 0l1.5.5-1.5.5v-1zm30 0l3 4 4 1 6-3-2 3-6 1-3.5-1q1-3-2-2l.5-3zm-36 1l3.5.5-3.5.5v-1zm128 0l-1 2 1-2zm-40 1l4.5 3.5-1.5-.5-3-2-4 3 2-3 2-1zm-19 1l2 3-2.5-1 .5-2zm38 1l18.5.5-17.5.5-3 1v-1l2-1zm-134 1l3 4 5 1 3-1v1l-6 1-4.5-3.5-.5-2.5zm14 0l-.5 1.5-.5 1.5-.5-1.5 1.5-1.5zm86.5 1l5.5 1 2-1-1 2q-7.6 1.5-6.5-2z"/><path fill="#969696" stroke="#969696" d="M542.5 318l6.5 3.5 1 7-3 4.5-9.5 1-3 2H528l-1 4h2q-1.3 4.1 2 3v3.5l-2 2-1 16 4 9-2.5 5.5-8 1-2.5-1-5-8.5v-21l2-3 1-7.5-5.5 1-5.5-2q-1.8-2.4-1-8.5l3.5-3.5 8-1 4-2h7l2-2q8.9.9 13-3zm-208 11h16q1.9 3.6 6.5 3l1.5 3q2.3-.7 1.5 1.5l4 5 1 7.5 4-1 1.5-3 3-2 2.5-1q-1.4-3.7 4.5-2l5-1 3.5 1q-1.1-2.7 1.5-2 1.5-2.5 7-1 1.2 3.7 5.5 3l4.5 6q2.3-.7 1.5 1.5l6 12v8l-6 13.5q-2.7-1.1-2 1.5l-4.5 5.5-3 2-16 11h-13l-8.5-3q1.1-2.7-1.5-2l-4.5-3-3-6.5v-16l3-7.5h-4q1.1 2.7-1.5 2l-9 4h-13l-1.5 1.5 1 11 2 2v8q-2.1 4.4-8.5 4.5l-5.5-4.5-4-21V352l-2-.5v-7q9.5-10.5 24.5-15.5zm6.5 14l-13 4-1 7 5 2h6l10-5q3-1 2-7l-9-1zm52 9l-4 3-5-1-4 1-9 12q1 2-2 1l-1 8-2 2 1 5 4 3q4-1 6 1 6 0 9-3l13-13 2-6-2-6-2-3-4-4zm54.5-20h4l4.5 3.5 2 3 1 7 2 2 3 11.5q3-1.2 2 2.5l3 5.5q3-1 2 2h2.5q5.3-6.7 7.5-16.5v-13l3-4.5 6.5-1 5.5 4.5v12l-2 3-1 9-5 11-8.5 8.5-10 1q-7.4-1.1-10.5-6.5l-1.5-2.5H455v4.5l-2 .5v2.5l-1 2.5q-2.4 1.7-8.5 1l-2.5-1q-2-3-1-10.5l2-5v-30l1-3.5 4.5-3zm-24 3h5l4.5 4.5 1 19q3 3 2 10-3.3 3.7-2 12l-3 6.5q-2.1 1.6-7.5 1l-2.5-1-2-3.5v-5l2-4v-19l-2-8v-7l4.5-5.5zm-197 6q8.6.4 12.5 5.5l2 5 1 13 2 4v16l-6.5 8.5q-3.5 3.5-10 4l-5.5-2.5-2-6 2-4-3.5-1.5-2.5 1 1 13.5-2.5 3.5-7 1q-6.4-4.6-6.5-15.5l1-2q-3.7-2.3-3-9l4.5-5.5q3.8 1.3 2.5-2.5l9-18.5 3-1.5 1.5-2.5 3-2 4-2zm.5 20l-1 1q-4-1-2 3l-2 1 2 2 4-1q1-5-1-6zM62.5 342q25-2 35.5 10.5l1 8-3.5 5.5-7.5 4.5 1 4.5q3-1.2 2 2.5l3 3v12q-3.7 1.3-3 5.5l-3 1.5q.8 2.3-1.5 1.5l-8 5-11 1-12.5-3 1 6.5-3.5 4.5-5 1-4.5-2.5-3-7v-43q-3-1-2-6l6.5-9.5 18-6zm2.5 14l-7 2-4 8v17l4 1 1 3v2q3-1 2 2l4 1q13 2 16-5l-2-4-15-2q-6-3-4-12l10-7 6-1 2-3q-5-3-13-2zm187.5-14q5.4-.6 7.5 1l3 6.5V364h4v-2q2.7 1.1 2-1.5l9-8q-.7-2.2 1.5-1.5 4.6-7.4 16-8l5.5 3.5 1 5-3.5 5.5-6.5 1q1.1 2.7-1.5 2l-4.5 3q1.1 2.7-1.5 2l-7.5 8.5 12 15 1 3.5q3-1.2 2 2.5l1 4-2.5 4.5-8 1-2.5-1q-2.6-10-10.5-16-3.4-.9-1.5 4.5l-3 6.5-5.5 1-4.5-2.5V395l-2-.5v-13q-2.5-1.5-1-7l-2-2-2-26 2-3.5 2.5-1z"/><path fill="#969696" stroke="#969696" d="M184.5 347l12.5 1 3 4.5 1 6-1 5-3 4.5-6 2.5q4.5 2.5 3 11l-4.5 5.5q-8 1.5-9.5-3.5V382h-5l-1 6.5 1 2-1 6.5q5.9-2.4 17.5-1l3.5 1q-.7 3.1 2 2.5v7l-3.5 3.5h-18l-3 2h-11l-5-4q-3.3 5.2-12 5l-4-1-15-13-6.5-1-1 9.5-2.5 2.5-6 1-4.5-3.5q-3-3-2-10l-2-3v-38l4.5-6.5 4-1 5.5 2q-1.1 2.7 1.5 2l10-5h9l7.5 3 5 8.5V371q-3-1.2-2 2.5l-1 2.5-3 1.5q.8 2.3-1.5 1.5l-4 3q-5.8-.8-7.5 2.5l5.5 4.5h2.5l1.5 3 3 2 1.5 3h8.5l4.5 3q-1 3 2 2-1.1-2.7 1.5-2l2.5-3.5-2-3V382q-2.7 1.1-2-1.5-4-1-3-7l3-4v-13l3.5-5.5 2-1h11l3-2q5.5 1.5 7-1zm-.5 15q-2 3-8 1l-3 3 2 2 1-1h11l-2-3q1-3-1-2zm-57 1l-6 3q-4 1-3 5l12-2q1-3 4-2v-4h-7z"/></svg>